<svg width="30" height="22" viewBox="0 0 30 22" fill="none" xmlns="http://www.w3.org/2000/svg">
<path d="M29.9735 0.669761C29.8655 0.257816 29.4473 0.00100525 29.0374 0.0848618L21.7634 1.53368C21.1257 0.776678 20.2365 0.282056 19.2671 0.206454C18.5816 0.152995 17.8824 0.26725 17.221 0.53035C15.4831 1.21902 15.0229 2.85213 14.6539 4.16553C14.5635 4.48576 14.4749 4.80363 14.368 5.10433C10.2078 2.23939 2.77126 -0.690353 0.524103 0.14461C0.208593 0.262009 0 0.563892 0 0.900367C0.00209639 2.37519 1.51466 3.96742 3.42973 5.98417C3.95488 6.53762 4.501 7.11309 5.03034 7.70428C5.56473 9.3459 6.44025 10.4239 7.35861 11.3292C5.07751 14.208 3.25966 18.523 4.16453 20.3425C4.45802 20.9326 5.00624 21.2618 5.68547 21.2618C5.73788 21.2618 5.79239 21.2597 5.8469 21.2555C6.78923 21.1853 7.63199 20.331 8.7976 19.1475C9.48417 18.4505 10.2578 17.6654 11.199 16.8761C12.7624 16.6776 14.1981 16.0394 15.4907 15.1359C17.3254 15.8452 19.0202 16.2988 21.5941 15.7325C22.2576 15.8069 22.9138 15.8971 23.5406 15.9841C24.8257 16.1612 25.9211 16.3121 26.811 16.3121C27.6024 16.3121 28.2314 16.1927 28.6852 15.8656C28.9588 15.6686 29.0804 15.3226 28.9903 14.9977C28.3698 12.76 25.7259 10.4086 21.1603 8.00636C21.8491 6.53245 22.3104 5.10708 22.5212 3.91363L29.4462 1.63935C29.8508 1.50623 30.0814 1.08171 29.9735 0.669761ZM6.5167 7.06382C6.48316 6.95271 6.42551 6.84999 6.34899 6.76299C5.77247 6.11415 5.1729 5.48208 4.59743 4.87621C3.51988 3.74101 2.33121 2.48945 1.84065 1.59323C4.07071 1.74254 9.56076 3.7752 13.2811 6.30682C12.9114 6.59645 12.4799 6.9001 12.0198 7.2221C10.9462 7.97334 9.65261 8.90264 8.43813 10.1338C7.62531 9.32703 6.93585 8.44529 6.5167 7.06382ZM10.7934 15.3017C10.6351 15.3164 10.4842 15.3782 10.3605 15.4799C9.27034 16.374 8.37203 17.2849 7.65086 18.0176C6.94542 18.7335 6.06702 19.6245 5.7274 19.6496C5.70749 19.6517 5.69071 19.6517 5.67604 19.6517C5.6404 19.6507 5.61839 19.6475 5.62258 19.6528C5.12678 19.1098 6.33012 14.9013 9.06175 11.7975C10.3039 10.3877 11.7053 9.40656 12.9422 8.54179C14.3636 7.54705 15.4852 6.76194 15.8814 5.65294C16.0019 5.31751 16.1026 4.96112 16.2042 4.60158C16.5847 3.2452 16.8835 2.39616 17.8153 2.02719C18.1843 1.88044 18.5679 1.80392 18.938 1.80392C19.0061 1.80392 19.0742 1.80707 19.1424 1.81231C19.9589 1.8752 20.6864 2.49469 20.9872 3.36994C20.4295 7.24097 16.4369 14.7577 10.7934 15.3017ZM27.1349 14.6969C26.2995 14.7388 24.8781 14.5428 23.7607 14.3887C23.0773 14.2944 22.3593 14.1958 21.635 14.1172C21.5469 14.1067 21.4536 14.112 21.3656 14.1329C19.5475 14.5544 18.26 14.3791 16.944 13.9501C18.338 12.6504 19.5156 11.0629 20.4291 9.43631C24.6752 11.6701 26.4504 13.447 27.1349 14.6969Z" fill="#2FB0ED"/>
</svg>
