<svg width="100" height="100" viewBox="0 0 100 286" fill="none" xmlns="http://www.w3.org/2000/svg">
<g opacity="0.3">
<path d="M116.973 53.6698C116.866 53.2578 116.447 53.001 116.037 53.0849L108.763 54.5337C108.126 53.7767 107.236 53.2821 106.267 53.2065C105.582 53.153 104.882 53.2672 104.221 53.5303C102.483 54.219 102.023 55.8521 101.654 57.1655C101.563 57.4858 101.475 57.8036 101.368 58.1043C97.2078 55.2394 89.7713 52.3096 87.5241 53.1446C87.2086 53.262 87 53.5639 87 53.9004C87.0021 55.3752 88.5147 56.9674 90.4297 58.9842C90.9549 59.5376 91.501 60.1131 92.0303 60.7043C92.5647 62.3459 93.4402 63.4239 94.3586 64.3292C92.0775 67.208 90.2597 71.523 91.1645 73.3425C91.458 73.9326 92.0062 74.2618 92.6855 74.2618C92.7379 74.2618 92.7924 74.2597 92.8469 74.2555C93.7892 74.1853 94.632 73.331 95.7976 72.1475C96.4842 71.4505 97.2578 70.6654 98.199 69.8761C99.7624 69.6776 101.198 69.0394 102.491 68.1359C104.325 68.8452 106.02 69.2988 108.594 68.7325C109.258 68.8069 109.914 68.8971 110.541 68.9841C111.826 69.1612 112.921 69.3121 113.811 69.3121C114.602 69.3121 115.231 69.1927 115.685 68.8656C115.959 68.6686 116.08 68.3226 115.99 67.9977C115.37 65.76 112.726 63.4086 108.16 61.0064C108.849 59.5324 109.31 58.1071 109.521 56.9136L116.446 54.6394C116.851 54.5062 117.081 54.0817 116.973 53.6698ZM93.5167 60.0638C93.4832 59.9527 93.4255 59.85 93.349 59.763C92.7725 59.1141 92.1729 58.4821 91.5974 57.8762C90.5199 56.741 89.3312 55.4894 88.8407 54.5932C91.0707 54.7425 96.5608 56.7752 100.281 59.3068C99.9114 59.5965 99.4799 59.9001 99.0198 60.2221C97.9462 60.9733 96.6526 61.9026 95.4381 63.1338C94.6253 62.327 93.9359 61.4453 93.5167 60.0638ZM97.7934 68.3017C97.6351 68.3164 97.4842 68.3782 97.3605 68.4799C96.2703 69.374 95.372 70.2849 94.6509 71.0176C93.9454 71.7335 93.067 72.6245 92.7274 72.6496C92.7075 72.6517 92.6907 72.6517 92.676 72.6517C92.6404 72.6507 92.6184 72.6475 92.6226 72.6528C92.1268 72.1098 93.3301 67.9013 96.0617 64.7975C97.3039 63.3877 98.7053 62.4066 99.9422 61.5418C101.364 60.547 102.485 59.7619 102.881 58.6529C103.002 58.3175 103.103 57.9611 103.204 57.6016C103.585 56.2452 103.883 55.3962 104.815 55.0272C105.184 54.8804 105.568 54.8039 105.938 54.8039C106.006 54.8039 106.074 54.8071 106.142 54.8123C106.959 54.8752 107.686 55.4947 107.987 56.3699C107.43 60.241 103.437 67.7577 97.7934 68.3017ZM114.135 67.6969C113.3 67.7388 111.878 67.5428 110.761 67.3887C110.077 67.2944 109.359 67.1958 108.635 67.1172C108.547 67.1067 108.454 67.112 108.366 67.1329C106.547 67.5544 105.26 67.3791 103.944 66.9501C105.338 65.6504 106.516 64.0629 107.429 62.4363C111.675 64.6701 113.45 66.447 114.135 67.6969Z" fill="#4EC19F"/>
<path d="M105.108 57.1142C105.259 57.2756 105.462 57.3616 105.677 57.3616C105.892 57.3616 106.095 57.2756 106.246 57.1142C106.321 57.0398 106.385 56.9538 106.418 56.8574C106.461 56.7599 106.482 56.6635 106.482 56.5566C106.482 56.4486 106.461 56.3417 106.418 56.2452C106.385 56.1488 106.321 56.0524 106.246 55.9769C105.945 55.6866 105.409 55.6866 105.108 55.9769C105.033 56.0524 104.98 56.1488 104.937 56.2452C104.894 56.3417 104.872 56.4486 104.872 56.5566C104.872 56.6635 104.894 56.7599 104.937 56.8574C104.968 56.9538 105.033 57.0398 105.108 57.1142Z" fill="#4EC19F"/>
<path d="M82.9735 94.6698C82.8655 94.2578 82.4473 94.001 82.0374 94.0849L74.7634 95.5337C74.1257 94.7767 73.2365 94.2821 72.2671 94.2065C71.5816 94.153 70.8824 94.2672 70.221 94.5303C68.4831 95.219 68.0229 96.8521 67.6539 98.1655C67.5635 98.4858 67.4749 98.8036 67.368 99.1043C63.2078 96.2394 55.7713 93.3096 53.5241 94.1446C53.2086 94.262 53 94.5639 53 94.9004C53.0021 96.3752 54.5147 97.9674 56.4297 99.9842C56.9549 100.538 57.501 101.113 58.0303 101.704C58.5647 103.346 59.4402 104.424 60.3586 105.329C58.0775 108.208 56.2597 112.523 57.1645 114.343C57.458 114.933 58.0062 115.262 58.6855 115.262C58.7379 115.262 58.7924 115.26 58.8469 115.255C59.7892 115.185 60.632 114.331 61.7976 113.148C62.4842 112.45 63.2578 111.665 64.199 110.876C65.7624 110.678 67.1981 110.039 68.4907 109.136C70.3254 109.845 72.0202 110.299 74.5941 109.732C75.2576 109.807 75.9138 109.897 76.5406 109.984C77.8257 110.161 78.9211 110.312 79.811 110.312C80.6024 110.312 81.2314 110.193 81.6852 109.866C81.9588 109.669 82.0804 109.323 81.9903 108.998C81.3698 106.76 78.7259 104.409 74.1603 102.006C74.8491 100.532 75.3104 99.1071 75.5212 97.9136L82.4462 95.6394C82.8508 95.5062 83.0814 95.0817 82.9735 94.6698ZM59.5167 101.064C59.4832 100.953 59.4255 100.85 59.349 100.763C58.7725 100.114 58.1729 99.4821 57.5974 98.8762C56.5199 97.741 55.3312 96.4894 54.8407 95.5932C57.0707 95.7425 62.5608 97.7752 66.2811 100.307C65.9114 100.596 65.4799 100.9 65.0198 101.222C63.9462 101.973 62.6526 102.903 61.4381 104.134C60.6253 103.327 59.9359 102.445 59.5167 101.064ZM63.7934 109.302C63.6351 109.316 63.4842 109.378 63.3605 109.48C62.2703 110.374 61.372 111.285 60.6509 112.018C59.9454 112.734 59.067 113.624 58.7274 113.65C58.7075 113.652 58.6907 113.652 58.676 113.652C58.6404 113.651 58.6184 113.648 58.6226 113.653C58.1268 113.11 59.3301 108.901 62.0617 105.798C63.3039 104.388 64.7053 103.407 65.9422 102.542C67.3636 101.547 68.4852 100.762 68.8814 99.6529C69.0019 99.3175 69.1026 98.9611 69.2042 98.6016C69.5847 97.2452 69.8835 96.3962 70.8153 96.0272C71.1843 95.8804 71.5679 95.8039 71.938 95.8039C72.0061 95.8039 72.0742 95.8071 72.1424 95.8123C72.9589 95.8752 73.6864 96.4947 73.9872 97.3699C73.4295 101.241 69.4369 108.758 63.7934 109.302ZM80.1349 108.697C79.2995 108.739 77.8781 108.543 76.7607 108.389C76.0773 108.294 75.3593 108.196 74.635 108.117C74.5469 108.107 74.4536 108.112 74.3656 108.133C72.5475 108.554 71.26 108.379 69.944 107.95C71.338 106.65 72.5156 105.063 73.4291 103.436C77.6752 105.67 79.4504 107.447 80.1349 108.697Z" fill="#4EC19F"/>
<path d="M71.1077 98.1142C71.2586 98.2756 71.462 98.3616 71.6768 98.3616C71.8917 98.3616 72.0951 98.2756 72.246 98.1142C72.3215 98.0398 72.3854 97.9538 72.4179 97.8574C72.4609 97.7599 72.4819 97.6635 72.4819 97.5566C72.4819 97.4486 72.4609 97.3417 72.4179 97.2452C72.3854 97.1488 72.3215 97.0524 72.246 96.9769C71.9452 96.6866 71.4085 96.6866 71.1077 96.9769C71.0333 97.0524 70.9798 97.1488 70.9368 97.2452C70.8938 97.3417 70.8718 97.4486 70.8718 97.5566C70.8718 97.6635 70.8938 97.7599 70.9368 97.8574C70.9683 97.9538 71.0333 98.0398 71.1077 98.1142Z" fill="#4EC19F"/>
<path d="M70.9735 210.67C70.8655 210.258 70.4473 210.001 70.0374 210.085L62.7634 211.534C62.1257 210.777 61.2365 210.282 60.2671 210.206C59.5816 210.153 58.8824 210.267 58.221 210.53C56.4831 211.219 56.0229 212.852 55.6539 214.166C55.5635 214.486 55.4749 214.804 55.368 215.104C51.2078 212.239 43.7713 209.31 41.5241 210.145C41.2086 210.262 41 210.564 41 210.9C41.0021 212.375 42.5147 213.967 44.4297 215.984C44.9549 216.538 45.501 217.113 46.0303 217.704C46.5647 219.346 47.4402 220.424 48.3586 221.329C46.0775 224.208 44.2597 228.523 45.1645 230.343C45.458 230.933 46.0062 231.262 46.6855 231.262C46.7379 231.262 46.7924 231.26 46.8469 231.255C47.7892 231.185 48.632 230.331 49.7976 229.148C50.4842 228.45 51.2578 227.665 52.199 226.876C53.7624 226.678 55.1981 226.039 56.4907 225.136C58.3254 225.845 60.0202 226.299 62.5941 225.732C63.2576 225.807 63.9138 225.897 64.5406 225.984C65.8257 226.161 66.9211 226.312 67.811 226.312C68.6024 226.312 69.2314 226.193 69.6852 225.866C69.9588 225.669 70.0804 225.323 69.9903 224.998C69.3698 222.76 66.7259 220.409 62.1603 218.006C62.8491 216.532 63.3104 215.107 63.5212 213.914L70.4462 211.639C70.8508 211.506 71.0814 211.082 70.9735 210.67ZM47.5167 217.064C47.4832 216.953 47.4255 216.85 47.349 216.763C46.7725 216.114 46.1729 215.482 45.5974 214.876C44.5199 213.741 43.3312 212.489 42.8407 211.593C45.0707 211.743 50.5608 213.775 54.2811 216.307C53.9114 216.596 53.4799 216.9 53.0198 217.222C51.9462 217.973 50.6526 218.903 49.4381 220.134C48.6253 219.327 47.9359 218.445 47.5167 217.064ZM51.7934 225.302C51.6351 225.316 51.4842 225.378 51.3605 225.48C50.2703 226.374 49.372 227.285 48.6509 228.018C47.9454 228.734 47.067 229.624 46.7274 229.65C46.7075 229.652 46.6907 229.652 46.676 229.652C46.6404 229.651 46.6184 229.648 46.6226 229.653C46.1268 229.11 47.3301 224.901 50.0617 221.798C51.3039 220.388 52.7053 219.407 53.9422 218.542C55.3636 217.547 56.4852 216.762 56.8814 215.653C57.0019 215.318 57.1026 214.961 57.2042 214.602C57.5847 213.245 57.8835 212.396 58.8153 212.027C59.1843 211.88 59.5679 211.804 59.938 211.804C60.0061 211.804 60.0742 211.807 60.1424 211.812C60.9589 211.875 61.6864 212.495 61.9872 213.37C61.4295 217.241 57.4369 224.758 51.7934 225.302ZM68.1349 224.697C67.2995 224.739 65.8781 224.543 64.7607 224.389C64.0773 224.294 63.3593 224.196 62.635 224.117C62.5469 224.107 62.4536 224.112 62.3656 224.133C60.5475 224.554 59.26 224.379 57.944 223.95C59.338 222.65 60.5156 221.063 61.4291 219.436C65.6752 221.67 67.4504 223.447 68.1349 224.697Z" fill="#4EC19F"/>
<path d="M59.1077 214.114C59.2586 214.276 59.462 214.362 59.6768 214.362C59.8917 214.362 60.0951 214.276 60.246 214.114C60.3215 214.04 60.3854 213.954 60.4179 213.857C60.4609 213.76 60.4819 213.663 60.4819 213.557C60.4819 213.449 60.4609 213.342 60.4179 213.245C60.3854 213.149 60.3215 213.052 60.246 212.977C59.9452 212.687 59.4085 212.687 59.1077 212.977C59.0333 213.052 58.9798 213.149 58.9368 213.245C58.8938 213.342 58.8718 213.449 58.8718 213.557C58.8718 213.663 58.8938 213.76 58.9368 213.857C58.9683 213.954 59.0333 214.04 59.1077 214.114Z" fill="#4EC19F"/>
<path d="M131.973 264.67C131.866 264.258 131.447 264.001 131.037 264.085L123.763 265.534C123.126 264.777 122.236 264.282 121.267 264.206C120.582 264.153 119.882 264.267 119.221 264.53C117.483 265.219 117.023 266.852 116.654 268.166C116.563 268.486 116.475 268.804 116.368 269.104C112.208 266.239 104.771 263.31 102.524 264.145C102.209 264.262 102 264.564 102 264.9C102.002 266.375 103.515 267.967 105.43 269.984C105.955 270.538 106.501 271.113 107.03 271.704C107.565 273.346 108.44 274.424 109.359 275.329C107.078 278.208 105.26 282.523 106.165 284.343C106.458 284.933 107.006 285.262 107.685 285.262C107.738 285.262 107.792 285.26 107.847 285.255C108.789 285.185 109.632 284.331 110.798 283.148C111.484 282.45 112.258 281.665 113.199 280.876C114.762 280.678 116.198 280.039 117.491 279.136C119.325 279.845 121.02 280.299 123.594 279.732C124.258 279.807 124.914 279.897 125.541 279.984C126.826 280.161 127.921 280.312 128.811 280.312C129.602 280.312 130.231 280.193 130.685 279.866C130.959 279.669 131.08 279.323 130.99 278.998C130.37 276.76 127.726 274.409 123.16 272.006C123.849 270.532 124.31 269.107 124.521 267.914L131.446 265.639C131.851 265.506 132.081 265.082 131.973 264.67ZM108.517 271.064C108.483 270.953 108.426 270.85 108.349 270.763C107.772 270.114 107.173 269.482 106.597 268.876C105.52 267.741 104.331 266.489 103.841 265.593C106.071 265.743 111.561 267.775 115.281 270.307C114.911 270.596 114.48 270.9 114.02 271.222C112.946 271.973 111.653 272.903 110.438 274.134C109.625 273.327 108.936 272.445 108.517 271.064ZM112.793 279.302C112.635 279.316 112.484 279.378 112.36 279.48C111.27 280.374 110.372 281.285 109.651 282.018C108.945 282.734 108.067 283.624 107.727 283.65C107.707 283.652 107.691 283.652 107.676 283.652C107.64 283.651 107.618 283.648 107.623 283.653C107.127 283.11 108.33 278.901 111.062 275.798C112.304 274.388 113.705 273.407 114.942 272.542C116.364 271.547 117.485 270.762 117.881 269.653C118.002 269.318 118.103 268.961 118.204 268.602C118.585 267.245 118.883 266.396 119.815 266.027C120.184 265.88 120.568 265.804 120.938 265.804C121.006 265.804 121.074 265.807 121.142 265.812C121.959 265.875 122.686 266.495 122.987 267.37C122.43 271.241 118.437 278.758 112.793 279.302ZM129.135 278.697C128.3 278.739 126.878 278.543 125.761 278.389C125.077 278.294 124.359 278.196 123.635 278.117C123.547 278.107 123.454 278.112 123.366 278.133C121.547 278.554 120.26 278.379 118.944 277.95C120.338 276.65 121.516 275.063 122.429 273.436C126.675 275.67 128.45 277.447 129.135 278.697Z" fill="#4EC19F"/>
<path d="M120.108 268.114C120.259 268.276 120.462 268.362 120.677 268.362C120.892 268.362 121.095 268.276 121.246 268.114C121.321 268.04 121.385 267.954 121.418 267.857C121.461 267.76 121.482 267.663 121.482 267.557C121.482 267.449 121.461 267.342 121.418 267.245C121.385 267.149 121.321 267.052 121.246 266.977C120.945 266.687 120.409 266.687 120.108 266.977C120.033 267.052 119.98 267.149 119.937 267.245C119.894 267.342 119.872 267.449 119.872 267.557C119.872 267.663 119.894 267.76 119.937 267.857C119.968 267.954 120.033 268.04 120.108 268.114Z" fill="#4EC19F"/>
<path d="M93.9735 2.66976C93.8655 2.25782 93.4473 2.00101 93.0374 2.08486L85.7634 3.53368C85.1257 2.77668 84.2365 2.28206 83.2671 2.20645C82.5816 2.153 81.8824 2.26725 81.221 2.53035C79.4831 3.21902 79.0229 4.85213 78.6539 6.16553C78.5635 6.48576 78.4749 6.80363 78.368 7.10433C74.2078 4.23939 66.7713 1.30965 64.5241 2.14461C64.2086 2.26201 64 2.56389 64 2.90037C64.0021 4.37519 65.5147 5.96742 67.4297 7.98417C67.9549 8.53762 68.501 9.11309 69.0303 9.70428C69.5647 11.3459 70.4402 12.4239 71.3586 13.3292C69.0775 16.208 67.2597 20.523 68.1645 22.3425C68.458 22.9326 69.0062 23.2618 69.6855 23.2618C69.7379 23.2618 69.7924 23.2597 69.8469 23.2555C70.7892 23.1853 71.632 22.331 72.7976 21.1475C73.4842 20.4505 74.2578 19.6654 75.199 18.8761C76.7624 18.6776 78.1981 18.0394 79.4907 17.1359C81.3254 17.8452 83.0202 18.2988 85.5941 17.7325C86.2576 17.8069 86.9138 17.8971 87.5406 17.9841C88.8257 18.1612 89.9211 18.3121 90.811 18.3121C91.6024 18.3121 92.2314 18.1927 92.6852 17.8656C92.9588 17.6686 93.0804 17.3226 92.9903 16.9977C92.3698 14.76 89.7259 12.4086 85.1603 10.0064C85.8491 8.53245 86.3104 7.10708 86.5212 5.91363L93.4462 3.63935C93.8508 3.50623 94.0814 3.08171 93.9735 2.66976ZM70.5167 9.06382C70.4832 8.95271 70.4255 8.84999 70.349 8.76299C69.7725 8.11415 69.1729 7.48208 68.5974 6.87621C67.5199 5.74101 66.3312 4.48945 65.8407 3.59323C68.0707 3.74254 73.5608 5.7752 77.2811 8.30682C76.9114 8.59645 76.4799 8.9001 76.0198 9.2221C74.9462 9.97334 73.6526 10.9026 72.4381 12.1338C71.6253 11.327 70.9359 10.4453 70.5167 9.06382ZM74.7934 17.3017C74.6351 17.3164 74.4842 17.3782 74.3605 17.4799C73.2703 18.374 72.372 19.2849 71.6509 20.0176C70.9454 20.7335 70.067 21.6245 69.7274 21.6496C69.7075 21.6517 69.6907 21.6517 69.676 21.6517C69.6404 21.6507 69.6184 21.6475 69.6226 21.6528C69.1268 21.1098 70.3301 16.9013 73.0617 13.7975C74.3039 12.3877 75.7053 11.4066 76.9422 10.5418C78.3636 9.54705 79.4852 8.76194 79.8814 7.65294C80.0019 7.31751 80.1026 6.96112 80.2042 6.60158C80.5847 5.2452 80.8835 4.39616 81.8153 4.02719C82.1843 3.88044 82.5679 3.80392 82.938 3.80392C83.0061 3.80392 83.0742 3.80707 83.1424 3.81231C83.9589 3.8752 84.6864 4.49469 84.9872 5.36994C84.4295 9.24097 80.4369 16.7577 74.7934 17.3017ZM91.1349 16.6969C90.2995 16.7388 88.8781 16.5428 87.7607 16.3887C87.0773 16.2944 86.3593 16.1958 85.635 16.1172C85.5469 16.1067 85.4536 16.112 85.3656 16.1329C83.5475 16.5544 82.26 16.3791 80.944 15.9501C82.338 14.6504 83.5156 13.0629 84.4291 11.4363C88.6752 13.6701 90.4504 15.447 91.1349 16.6969Z" fill="#4EC19F"/>
<path d="M82.1077 6.11422C82.2586 6.27565 82.462 6.3616 82.6768 6.3616C82.8917 6.3616 83.0951 6.27565 83.246 6.11422C83.3215 6.0398 83.3854 5.95385 83.4179 5.85741C83.4609 5.75993 83.4819 5.6635 83.4819 5.55658C83.4819 5.44861 83.4609 5.3417 83.4179 5.24526C83.3854 5.14883 83.3215 5.05239 83.246 4.97692C82.9452 4.68657 82.4085 4.68657 82.1077 4.97692C82.0333 5.05239 81.9798 5.14883 81.9368 5.24526C81.8938 5.3417 81.8718 5.44861 81.8718 5.55658C81.8718 5.6635 81.8938 5.75993 81.9368 5.85741C81.9683 5.95385 82.0333 6.0398 82.1077 6.11422Z" fill="#4EC19F"/>
<path d="M29.9735 29.6698C29.8655 29.2578 29.4473 29.001 29.0374 29.0849L21.7634 30.5337C21.1257 29.7767 20.2365 29.2821 19.2671 29.2065C18.5816 29.153 17.8824 29.2672 17.221 29.5303C15.4831 30.219 15.0229 31.8521 14.6539 33.1655C14.5635 33.4858 14.4749 33.8036 14.368 34.1043C10.2078 31.2394 2.77126 28.3096 0.524103 29.1446C0.208593 29.262 0 29.5639 0 29.9004C0.00209639 31.3752 1.51466 32.9674 3.42973 34.9842C3.95488 35.5376 4.501 36.1131 5.03034 36.7043C5.56473 38.3459 6.44025 39.4239 7.35861 40.3292C5.07751 43.208 3.25966 47.523 4.16453 49.3425C4.45802 49.9326 5.00624 50.2618 5.68547 50.2618C5.73788 50.2618 5.79239 50.2597 5.8469 50.2555C6.78923 50.1853 7.63199 49.331 8.7976 48.1475C9.48417 47.4505 10.2578 46.6654 11.199 45.8761C12.7624 45.6776 14.1981 45.0394 15.4907 44.1359C17.3254 44.8452 19.0202 45.2988 21.5941 44.7325C22.2576 44.8069 22.9138 44.8971 23.5406 44.9841C24.8257 45.1612 25.9211 45.3121 26.811 45.3121C27.6024 45.3121 28.2314 45.1927 28.6852 44.8656C28.9588 44.6686 29.0804 44.3226 28.9903 43.9977C28.3698 41.76 25.7259 39.4086 21.1603 37.0064C21.8491 35.5324 22.3104 34.1071 22.5212 32.9136L29.4462 30.6394C29.8508 30.5062 30.0814 30.0817 29.9735 29.6698ZM6.5167 36.0638C6.48316 35.9527 6.42551 35.85 6.34899 35.763C5.77247 35.1141 5.1729 34.4821 4.59743 33.8762C3.51988 32.741 2.33121 31.4894 1.84065 30.5932C4.07071 30.7425 9.56076 32.7752 13.2811 35.3068C12.9114 35.5965 12.4799 35.9001 12.0198 36.2221C10.9462 36.9733 9.65261 37.9026 8.43813 39.1338C7.62531 38.327 6.93585 37.4453 6.5167 36.0638ZM10.7934 44.3017C10.6351 44.3164 10.4842 44.3782 10.3605 44.4799C9.27034 45.374 8.37203 46.2849 7.65086 47.0176C6.94542 47.7335 6.06702 48.6245 5.7274 48.6496C5.70749 48.6517 5.69071 48.6517 5.67604 48.6517C5.6404 48.6507 5.61839 48.6475 5.62258 48.6528C5.12678 48.1098 6.33012 43.9013 9.06175 40.7975C10.3039 39.3877 11.7053 38.4066 12.9422 37.5418C14.3636 36.547 15.4852 35.7619 15.8814 34.6529C16.0019 34.3175 16.1026 33.9611 16.2042 33.6016C16.5847 32.2452 16.8835 31.3962 17.8153 31.0272C18.1843 30.8804 18.5679 30.8039 18.938 30.8039C19.0061 30.8039 19.0742 30.8071 19.1424 30.8123C19.9589 30.8752 20.6864 31.4947 20.9872 32.3699C20.4295 36.241 16.4369 43.7577 10.7934 44.3017ZM27.1349 43.6969C26.2995 43.7388 24.8781 43.5428 23.7607 43.3887C23.0773 43.2944 22.3593 43.1958 21.635 43.1172C21.5469 43.1067 21.4536 43.112 21.3656 43.1329C19.5475 43.5544 18.26 43.3791 16.944 42.9501C18.338 41.6504 19.5156 40.0629 20.4291 38.4363C24.6752 40.6701 26.4504 42.447 27.1349 43.6969Z" fill="#4EC19F"/>
<path d="M18.1077 33.1142C18.2586 33.2756 18.462 33.3616 18.6768 33.3616C18.8917 33.3616 19.0951 33.2756 19.246 33.1142C19.3215 33.0398 19.3854 32.9538 19.4179 32.8574C19.4609 32.7599 19.4819 32.6635 19.4819 32.5566C19.4819 32.4486 19.4609 32.3417 19.4179 32.2453C19.3854 32.1488 19.3215 32.0524 19.246 31.9769C18.9452 31.6866 18.4085 31.6866 18.1077 31.9769C18.0333 32.0524 17.9798 32.1488 17.9368 32.2453C17.8938 32.3417 17.8718 32.4486 17.8718 32.5566C17.8718 32.6635 17.8938 32.7599 17.9368 32.8574C17.9683 32.9538 18.0333 33.0398 18.1077 33.1142Z" fill="#4EC19F"/>
<path d="M135.973 125.67C135.866 125.258 135.447 125.001 135.037 125.085L127.763 126.534C127.126 125.777 126.236 125.282 125.267 125.206C124.582 125.153 123.882 125.267 123.221 125.53C121.483 126.219 121.023 127.852 120.654 129.166C120.563 129.486 120.475 129.804 120.368 130.104C116.208 127.239 108.771 124.31 106.524 125.145C106.209 125.262 106 125.564 106 125.9C106.002 127.375 107.515 128.967 109.43 130.984C109.955 131.538 110.501 132.113 111.03 132.704C111.565 134.346 112.44 135.424 113.359 136.329C111.078 139.208 109.26 143.523 110.165 145.343C110.458 145.933 111.006 146.262 111.685 146.262C111.738 146.262 111.792 146.26 111.847 146.255C112.789 146.185 113.632 145.331 114.798 144.148C115.484 143.45 116.258 142.665 117.199 141.876C118.762 141.678 120.198 141.039 121.491 140.136C123.325 140.845 125.02 141.299 127.594 140.732C128.258 140.807 128.914 140.897 129.541 140.984C130.826 141.161 131.921 141.312 132.811 141.312C133.602 141.312 134.231 141.193 134.685 140.866C134.959 140.669 135.08 140.323 134.99 139.998C134.37 137.76 131.726 135.409 127.16 133.006C127.849 131.532 128.31 130.107 128.521 128.914L135.446 126.639C135.851 126.506 136.081 126.082 135.973 125.67ZM112.517 132.064C112.483 131.953 112.426 131.85 112.349 131.763C111.772 131.114 111.173 130.482 110.597 129.876C109.52 128.741 108.331 127.489 107.841 126.593C110.071 126.743 115.561 128.775 119.281 131.307C118.911 131.596 118.48 131.9 118.02 132.222C116.946 132.973 115.653 133.903 114.438 135.134C113.625 134.327 112.936 133.445 112.517 132.064ZM116.793 140.302C116.635 140.316 116.484 140.378 116.36 140.48C115.27 141.374 114.372 142.285 113.651 143.018C112.945 143.734 112.067 144.624 111.727 144.65C111.707 144.652 111.691 144.652 111.676 144.652C111.64 144.651 111.618 144.648 111.623 144.653C111.127 144.11 112.33 139.901 115.062 136.798C116.304 135.388 117.705 134.407 118.942 133.542C120.364 132.547 121.485 131.762 121.881 130.653C122.002 130.318 122.103 129.961 122.204 129.602C122.585 128.245 122.883 127.396 123.815 127.027C124.184 126.88 124.568 126.804 124.938 126.804C125.006 126.804 125.074 126.807 125.142 126.812C125.959 126.875 126.686 127.495 126.987 128.37C126.43 132.241 122.437 139.758 116.793 140.302ZM133.135 139.697C132.3 139.739 130.878 139.543 129.761 139.389C129.077 139.294 128.359 139.196 127.635 139.117C127.547 139.107 127.454 139.112 127.366 139.133C125.547 139.554 124.26 139.379 122.944 138.95C124.338 137.65 125.516 136.063 126.429 134.436C130.675 136.67 132.45 138.447 133.135 139.697Z" fill="#4EC19F"/>
<path d="M124.108 129.114C124.259 129.276 124.462 129.362 124.677 129.362C124.892 129.362 125.095 129.276 125.246 129.114C125.321 129.04 125.385 128.954 125.418 128.857C125.461 128.76 125.482 128.663 125.482 128.557C125.482 128.449 125.461 128.342 125.418 128.245C125.385 128.149 125.321 128.052 125.246 127.977C124.945 127.687 124.409 127.687 124.108 127.977C124.033 128.052 123.98 128.149 123.937 128.245C123.894 128.342 123.872 128.449 123.872 128.557C123.872 128.663 123.894 128.76 123.937 128.857C123.968 128.954 124.033 129.04 124.108 129.114Z" fill="#4EC19F"/>
</g>
</svg>
