<svg width="26" height="45" viewBox="0 0 26 45" fill="none" xmlns="http://www.w3.org/2000/svg">
<path d="M12.8571 44.086C16.2642 44.0757 19.529 42.5794 21.9381 39.9241C24.3472 37.2689 25.7049 33.6706 25.7143 29.9155V14.1705C25.7143 10.4123 24.3597 6.80793 21.9485 4.15045C19.5373 1.49296 16.2671 0 12.8571 0C9.44722 0 6.17695 1.49296 3.76577 4.15045C1.35459 6.80793 0 10.4123 0 14.1705V29.9155C0.00942475 33.6706 1.36704 37.2689 3.77618 39.9241C6.18532 42.5794 9.45011 44.0757 12.8571 44.086ZM15.7929 31.4349L14.3643 33.7967C14.2002 34.0597 13.9805 34.2748 13.7241 34.4234C13.4678 34.572 13.1825 34.6497 12.8929 34.6497C12.6032 34.6497 12.3179 34.572 12.0616 34.4234C11.8052 34.2748 11.5855 34.0597 11.4214 33.7967L9.99286 31.4349C9.85919 31.2225 9.7648 30.9831 9.71507 30.7304C9.66535 30.4778 9.66126 30.2168 9.70305 29.9624C9.74484 29.708 9.83168 29.4652 9.95861 29.2477C10.0855 29.0303 10.2501 28.8426 10.4429 28.6953C10.6356 28.548 10.8528 28.4439 11.0821 28.3891C11.3113 28.3343 11.5481 28.3298 11.7789 28.3759C12.0097 28.4219 12.2301 28.5176 12.4273 28.6575C12.6246 28.7975 12.7949 28.9788 12.9286 29.1913C13.1985 28.7622 13.6121 28.4689 14.0782 28.3759C14.5444 28.2829 15.025 28.3978 15.4143 28.6953C15.8036 28.9928 16.0697 29.4486 16.1541 29.9624C16.2385 30.4762 16.1342 31.0059 15.8643 31.4349H15.7929ZM9.70714 5.39267C9.744 5.37734 9.78369 5.37213 9.82279 5.37748C9.86188 5.38283 9.89921 5.39858 9.93155 5.42338C9.96389 5.44817 9.99027 5.48127 10.0084 5.51981C10.0266 5.55834 10.0359 5.60117 10.0357 5.64459C10.0376 6.23066 10.2497 6.79213 10.6257 7.20654C11.0017 7.62095 11.5111 7.85469 12.0429 7.85676H13.7071C14.2389 7.85469 14.7483 7.62095 15.1243 7.20654C15.5003 6.79213 15.7124 6.23066 15.7143 5.64459C15.7141 5.60117 15.7234 5.55834 15.7416 5.51981C15.7597 5.48127 15.7861 5.44817 15.8185 5.42338C15.8508 5.39858 15.8881 5.38283 15.9272 5.37748C15.9663 5.37213 16.006 5.37734 16.0429 5.39267C17.8952 6.20467 19.4328 7.70286 20.3911 9.62942C21.3493 11.556 21.6684 13.7904 21.2933 15.9483C20.9183 18.1061 19.8725 20.0524 18.336 21.4522C16.7996 22.852 14.8684 23.6178 12.875 23.6178C10.8815 23.6178 8.95044 22.852 7.41396 21.4522C5.87748 20.0524 4.83173 18.1061 4.45666 15.9483C4.08159 13.7904 4.40065 11.556 5.35894 9.62942C6.31724 7.70286 7.85484 6.20467 9.70714 5.39267Z" fill="#61BBE6"/>
<path d="M8.37143 14.3673C8.39348 14.3299 8.42365 14.2992 8.4592 14.278C8.49475 14.2567 8.53456 14.2456 8.575 14.2456C8.61544 14.2456 8.65525 14.2567 8.6908 14.278C8.72635 14.2992 8.75652 14.3299 8.77857 14.3673C8.8426 14.4497 8.9214 14.5167 9.01002 14.5639C9.09864 14.6112 9.19516 14.6377 9.29353 14.6419C9.3919 14.6461 9.49 14.6278 9.58166 14.5882C9.67332 14.5487 9.75657 14.4886 9.82618 14.4119C9.89579 14.3352 9.95026 14.2434 9.98617 14.1424C10.0221 14.0414 10.0387 13.9333 10.0349 13.8249C10.0311 13.7164 10.007 13.6101 9.96409 13.5124C9.92122 13.4147 9.86049 13.3279 9.78571 13.2573C9.45874 12.9127 9.0238 12.7205 8.57143 12.7205C8.11906 12.7205 7.68412 12.9127 7.35714 13.2573C7.28237 13.3279 7.22164 13.4147 7.17877 13.5124C7.13589 13.6101 7.1118 13.7164 7.108 13.8249C7.1042 13.9333 7.12078 14.0414 7.15669 14.1424C7.1926 14.2434 7.24707 14.3352 7.31668 14.4119C7.38629 14.4886 7.46954 14.5487 7.5612 14.5882C7.65286 14.6278 7.75095 14.6461 7.84932 14.6419C7.94769 14.6377 8.04422 14.6112 8.13284 14.5639C8.22145 14.5167 8.30025 14.4497 8.36429 14.3673H8.37143Z" fill="#61BBE6"/>
<path d="M10.2 18.461C10.9068 19.2364 11.8634 19.6718 12.8607 19.6718C13.858 19.6718 14.8147 19.2364 15.5214 18.461C15.5962 18.3904 15.6569 18.3036 15.6998 18.2059C15.7427 18.1082 15.7668 18.0019 15.7706 17.8934C15.7744 17.785 15.7578 17.6769 15.7219 17.5759C15.686 17.4749 15.6315 17.3831 15.5619 17.3064C15.4923 17.2297 15.409 17.1696 15.3174 17.1301C15.2257 17.0905 15.1276 17.0722 15.0292 17.0764C14.9309 17.0806 14.8344 17.1071 14.7457 17.1544C14.6571 17.2016 14.5783 17.2686 14.5143 17.351C14.0764 17.8327 13.483 18.1032 12.8643 18.1032C12.2456 18.1032 11.6522 17.8327 11.2143 17.351C11.0776 17.222 10.9019 17.1546 10.7221 17.1623C10.5423 17.1699 10.3718 17.2521 10.2446 17.3923C10.1174 17.5325 10.0429 17.7204 10.0359 17.9186C10.029 18.1167 10.0901 18.3104 10.2071 18.461H10.2Z" fill="#61BBE6"/>
<path d="M16.9429 14.3673C16.9649 14.3299 16.9951 14.2992 17.0306 14.278C17.0662 14.2567 17.106 14.2456 17.1464 14.2456C17.1869 14.2456 17.2267 14.2567 17.2622 14.278C17.2978 14.2992 17.3279 14.3299 17.35 14.3673C17.414 14.4497 17.4928 14.5167 17.5815 14.5639C17.6701 14.6112 17.7666 14.6377 17.865 14.6419C17.9633 14.6461 18.0614 14.6278 18.1531 14.5882C18.2448 14.5487 18.328 14.4886 18.3976 14.4119C18.4672 14.3352 18.5217 14.2434 18.5576 14.1424C18.5935 14.0414 18.6101 13.9333 18.6063 13.8249C18.6025 13.7164 18.5784 13.6101 18.5355 13.5124C18.4926 13.4147 18.4319 13.3279 18.3571 13.2573C18.0302 12.9127 17.5952 12.7205 17.1429 12.7205C16.6905 12.7205 16.2555 12.9127 15.9286 13.2573C15.8538 13.3279 15.7931 13.4147 15.7502 13.5124C15.7073 13.6101 15.6832 13.7164 15.6794 13.8249C15.6756 13.9333 15.6922 14.0414 15.7281 14.1424C15.764 14.2434 15.8185 14.3352 15.8881 14.4119C15.9577 14.4886 16.041 14.5487 16.1326 14.5882C16.2243 14.6278 16.3224 14.6461 16.4208 14.6419C16.5191 14.6377 16.6156 14.6112 16.7043 14.5639C16.7929 14.5167 16.8717 14.4497 16.9357 14.3673H16.9429Z" fill="#61BBE6"/>
</svg>
