<svg width="395" height="128" viewBox="0 0 395 128" fill="none" xmlns="http://www.w3.org/2000/svg">
<circle cx="226.5" cy="37.5" r="37.5" fill="white"/>
<ellipse opacity="0.65" cx="88.9051" cy="30" rx="29.9051" ry="30" fill="white"/>
<mask id="mask0_749_5641" style="mask-type:alpha" maskUnits="userSpaceOnUse" x="65" y="43" width="23" height="14">
<path fill-rule="evenodd" clip-rule="evenodd" d="M65.3798 43.2H87.7089V56.8H65.3798V43.2Z" fill="white"/>
</mask>
<g mask="url(#mask0_749_5641)">
<path fill-rule="evenodd" clip-rule="evenodd" d="M85.0067 43.2C82.0957 53.7006 77.2636 62.3405 66.4428 49.0344C66.2203 48.7607 65.3379 48.3715 65.3813 48.4262C72.7941 57.768 77.1841 58.106 80.371 55.1544C83.0429 52.6798 84.7328 46.1734 87.7089 43.4441L85.0067 43.2Z" fill="#95D1EE"/>
</g>
<mask id="mask1_749_5641" style="mask-type:alpha" maskUnits="userSpaceOnUse" x="94" y="20" width="28" height="13">
<path fill-rule="evenodd" clip-rule="evenodd" d="M94.8861 20.8H122V32.8H94.8861V20.8Z" fill="white"/>
</mask>
<g mask="url(#mask1_749_5641)">
<path fill-rule="evenodd" clip-rule="evenodd" d="M94.8927 24.622C103.202 20.5991 109.375 21.4969 122 20.8C120.636 25.3015 117.321 30.5353 105.783 32.5338C94.2453 34.5324 94.8927 24.622 94.8927 24.622" fill="#95D1EE"/>
</g>
<path fill-rule="evenodd" clip-rule="evenodd" d="M94.8861 24.664C101.701 21.2123 107.227 21.7206 117.215 21.6C116.094 25.2245 112.8 29.6492 103.839 31.0343C94.8778 32.4195 94.8861 24.664 94.8861 24.664" fill="#95D1EE"/>
<path fill-rule="evenodd" clip-rule="evenodd" d="M94.8861 24.8551C100.205 22.0827 105.079 22.2122 112.43 22.6231C111.552 25.2812 108.283 28.7648 101.899 29.5267C95.5138 30.2887 94.8861 24.8551 94.8861 24.8551" fill="#95D1EE"/>
<path fill-rule="evenodd" clip-rule="evenodd" d="M94.8861 24.0557C98.7086 21.3669 102.926 21.1174 107.646 22.1993C107.01 24.4366 103.774 27.7207 99.9586 27.9878C96.1435 28.2548 94.8861 24.0557 94.8861 24.0557" fill="#95D1EE"/>
<mask id="mask2_749_5641" style="mask-type:alpha" maskUnits="userSpaceOnUse" x="62" y="4" width="46" height="52">
<path fill-rule="evenodd" clip-rule="evenodd" d="M62.1899 4H107.646V56H62.1899V4Z" fill="white"/>
</mask>
<g mask="url(#mask2_749_5641)">
<path fill-rule="evenodd" clip-rule="evenodd" d="M95.9868 11.1857C91.8004 11.4543 89.3637 14.8565 89.5071 18.5509C89.5267 19.0564 89.4743 23.3019 87.9005 24.6132C86.9084 25.4399 84.7798 27.486 84.3406 34.3596C84.2752 35.3859 84.2061 36.2005 84.255 37.4674C84.268 37.8044 84.2544 39.4631 81.702 43.7281C83.3126 42.8558 84.2317 40.8665 83.9576 41.6302C83.4575 43.0235 83.1822 43.8413 81.2134 47.8506C83.1077 46.6642 84.6245 42.844 84.5446 43.244C83.6469 47.7329 75.21 63.2231 63.2698 48.7722C63.0436 48.4983 62.1473 48.1093 62.1915 48.164C76.5444 65.9668 82.3046 48.446 87.0627 44.2909C86.083 45.7149 85.793 48.6153 86.143 48.4838C88.2401 43.5616 90.14 42.0994 90.5965 41.8235C95.1122 39.0947 99.6371 31.8628 99.4735 28.0775C99.4029 26.4453 99.118 25.2394 98.9453 24.4129C98.6944 23.2104 98.7011 20.5834 99.6986 18.7013C100.82 16.5854 101.115 14.5301 100.708 13.0644C100.384 11.5464 106.341 7.44447 107.646 3.99997C106.997 4.74489 106.128 5.95154 105.113 6.91194C102.79 9.1093 99.9994 11.1253 99.4513 11.2669C98.0689 11.6241 97.0384 11.1182 95.9868 11.1857" fill="#95D1EE"/>
</g>
<path fill-rule="evenodd" clip-rule="evenodd" d="M95.1906 12.0044C91.6694 12.0877 89.7536 15.4645 89.8744 18.7377C89.8908 19.1854 89.813 22.8948 88.557 24.1086C87.7604 24.8803 85.7795 26.8689 85.4096 32.9587C85.2901 34.9262 84.9407 40.1613 87.1943 40.7294C91.1864 41.736 98.3708 31.7148 98.1934 27.3961C98.134 25.95 97.7851 24.5593 97.6398 23.8271C97.4285 22.7619 97.3755 20.4801 98.0921 18.7928C99.6855 14.9972 98.9012 11.8656 95.1906 12.0044" fill="#95D1EE"/>
<path fill-rule="evenodd" clip-rule="evenodd" d="M95.3808 14.4028C92.1701 14.2954 90.2959 17.2588 90.4061 19.9694C90.4211 20.3401 90.3074 23.3526 89.2475 24.417C88.5689 25.1009 86.5227 26.9478 86.185 31.9907C86.0758 33.6202 85.826 37.8705 87.8842 38.341C91.5301 39.1745 98.0736 30.9643 97.9114 27.3881C97.8572 26.1906 97.4017 24.6718 97.2691 24.0655C97.0762 23.1833 96.9542 21.346 97.4537 19.9261C98.5828 16.6487 98.3339 14.4418 95.3808 14.4028" fill="#95D1EE"/>
<path fill-rule="evenodd" clip-rule="evenodd" d="M96.2813 16.8226C93.6964 16.5334 92.037 19.0733 92.1259 21.2196C92.1381 21.5131 91.9961 23.8301 91.2435 24.7414C90.7536 25.3347 88.8227 27.0291 88.5502 31.0224C88.4621 32.3126 88.3424 35.58 90.0032 35.9526C92.9453 36.6125 98.2043 30.2138 98.0736 27.382C98.0298 26.4338 97.5007 24.806 97.3937 24.3259C97.2381 23.6275 97.0528 22.2328 97.273 21.0823C97.7994 18.3318 98.15 17.0317 96.2813 16.8226" fill="#95D1EE"/>
<path fill-rule="evenodd" clip-rule="evenodd" d="M90.8987 22.625C85.2519 18.0414 72.6953 13.7986 62.2072 7.20001C61.8658 12.3628 66.5707 21.9543 75.4556 27.5308C86.0758 34.1966 90.8987 22.625 90.8987 22.625" fill="#95D1EE"/>
<path fill-rule="evenodd" clip-rule="evenodd" d="M90.8987 21.8965C85.9156 17.9587 76.3339 14.8646 67.7889 10.4C67.515 14.4616 70.5857 21.6068 78.1774 26.3641C86.8962 31.8152 90.8987 21.8965 90.8987 21.8965" fill="#95D1EE"/>
<path fill-rule="evenodd" clip-rule="evenodd" d="M90.8987 22.2125C86.2256 18.565 78.972 16.3383 71.7793 13.6C71.5542 16.9284 73.1847 22.2765 80.0166 26.6441C87.4382 31.3734 90.8987 22.2125 90.8987 22.2125" fill="#95D1EE"/>
<path fill-rule="evenodd" clip-rule="evenodd" d="M90.1013 22.008C86.1281 18.8354 81.8192 17.6154 76.5841 16.8C76.4266 19.2087 76.4729 22.4364 81.9731 26.1913C87.4734 29.9463 90.1013 22.008 90.1013 22.008" fill="#95D1EE"/>
<ellipse opacity="0.65" cx="28" cy="53.9836" rx="28" ry="27.9836" fill="white"/>
<mask id="mask3_749_5641" style="mask-type:alpha" maskUnits="userSpaceOnUse" x="5" y="72" width="31" height="29">
<path fill-rule="evenodd" clip-rule="evenodd" d="M5.22665 72.4346H35.9215V101H5.22665V72.4346Z" fill="white"/>
</mask>
<g mask="url(#mask3_749_5641)">
<path fill-rule="evenodd" clip-rule="evenodd" d="M12.2438 72.4346C2.2383 84.9898 2.51104 112.611 35.9215 93.9188C10.2388 110.767 -2.50168 95.1218 10.1934 72.4346H12.2438Z" fill="#95D1EE"/>
</g>
<path fill-rule="evenodd" clip-rule="evenodd" d="M31.0619 54.7114C32.6812 44.9443 27.15 33.6822 23.3003 27.4966C19.5677 30.5773 16.5644 39.304 19.2761 47.3752C21.9876 55.4463 31.0619 54.7114 31.0619 54.7114" fill="#95D1EE"/>
<path fill-rule="evenodd" clip-rule="evenodd" d="M17.9274 61.6433C30.4951 47.5447 37.0057 42.4794 46.4342 50.7384C48.1611 51.6394 53.8802 58.5704 53.758 58.4522C53.3007 58.0096 53.3491 58.3391 52.8691 57.8613C49.9348 54.9404 46.2439 50.8784 45.121 51.1087C36.7764 54.1351 36.4988 67.6593 20.6283 68.0973C19.7835 68.1206 17.0049 68.2843 14.6696 70.1244C0.437217 81.3386 5.59055 112.963 41.2148 93.0329C11.635 112.438 -7.27631 89.9172 17.9274 61.6433" fill="#95D1EE"/>
<path fill-rule="evenodd" clip-rule="evenodd" d="M19.6543 60.0765C30.7142 47.1213 37.1374 42.7313 46.3778 50.7192C35.53 49.0909 36.685 66.4034 20.699 66.5823C16.8209 66.6258 12.5513 65.5971 10.0663 64.8068C13.5079 64.2427 17.296 62.834 19.6543 60.0765" fill="#95D1EE"/>
<path fill-rule="evenodd" clip-rule="evenodd" d="M21.3812 58.5098C30.9332 46.6978 38.1494 42.9489 46.3214 50.7001C35.1898 46.5483 35.6441 64.2664 20.5624 64.4791C17.7351 64.5191 14.0572 63.0652 12.2382 62.5163C14.9672 62.3387 19.3803 60.9784 21.3812 58.5098" fill="#95D1EE"/>
<path fill-rule="evenodd" clip-rule="evenodd" d="M23.0373 56.1499C31.958 46.1365 43.5816 40.6521 46.2649 50.6808C34.826 43.9999 33.3369 61.9432 20.6808 62.1584C18.61 62.1936 15.5795 60.6221 14.2566 60.2362C18.5272 59.8299 21.3583 58.0346 23.0373 56.1499" fill="#95D1EE"/>
<mask id="mask4_749_5641" style="mask-type:alpha" maskUnits="userSpaceOnUse" x="8" y="27" width="24" height="29">
<path fill-rule="evenodd" clip-rule="evenodd" d="M8.48291 27.4925H31.735V55.8229H8.48291V27.4925Z" fill="white"/>
</mask>
<g mask="url(#mask4_749_5641)">
<path fill-rule="evenodd" clip-rule="evenodd" d="M31.735 54.0674C28.8064 42.3761 20.6877 39.2132 9.878 27.4924C7.20627 32.7555 8.08612 43.9624 15.0256 51.6435C21.965 59.3247 31.735 54.0674 31.735 54.0674" fill="#95D1EE"/>
</g>
<path fill-rule="evenodd" clip-rule="evenodd" d="M31.7334 54.065C29.3534 44.3747 22.6271 41.1354 13.6887 32.2343C11.4887 36.5681 12.2603 45.7443 17.9745 52.0692C23.6885 58.394 31.7334 54.065 31.7334 54.065" fill="#95D1EE"/>
<path fill-rule="evenodd" clip-rule="evenodd" d="M31.7319 54.0626C29.9006 46.3735 24.5667 43.0578 17.4994 36.9764C15.7711 40.3807 16.4346 47.5262 20.9234 52.4948C25.4121 57.4633 31.7319 54.0626 31.7319 54.0626" fill="#95D1EE"/>
<path fill-rule="evenodd" clip-rule="evenodd" d="M31.7303 54.0602C30.4477 48.3722 26.5061 44.9801 21.3099 41.7184C20.0535 44.1934 20.6089 49.3081 23.8723 52.9203C27.1358 56.5326 31.7303 54.0602 31.7303 54.0602" fill="#95D1EE"/>
<circle cx="288.5" cy="55.5" r="37.5" fill="white"/>
<circle cx="350.5" cy="52.5" r="37.5" fill="white"/>
<mask id="mask5_749_5641" style="mask-type:alpha" maskUnits="userSpaceOnUse" x="274" y="82" width="42" height="39">
<path fill-rule="evenodd" clip-rule="evenodd" d="M316 82.2255H274.891V120.505H316V82.2255Z" fill="white"/>
</mask>
<g mask="url(#mask5_749_5641)">
<path fill-rule="evenodd" clip-rule="evenodd" d="M306.602 82.2255C320.002 99.0504 319.637 136.064 274.891 111.016C309.287 133.594 326.35 112.628 309.348 82.2255H306.602Z" fill="#F76C46"/>
</g>
<path fill-rule="evenodd" clip-rule="evenodd" d="M281.399 58.4752C279.231 45.3866 286.638 30.2946 291.794 22.0055C296.793 26.1339 300.815 37.8282 297.184 48.6442C293.552 59.4601 281.399 58.4752 281.399 58.4752" fill="#F15436"/>
<path fill-rule="evenodd" clip-rule="evenodd" d="M298.99 67.7645C282.158 48.8714 273.439 42.0835 260.811 53.1512C258.499 54.3586 250.839 63.6465 251.003 63.4882C251.615 62.895 251.55 63.3366 252.193 62.6964C256.123 58.7821 261.066 53.3387 262.57 53.6473C273.746 57.703 274.118 75.8262 295.373 76.4132C296.504 76.4445 300.226 76.6639 303.353 79.1297C322.414 94.1575 315.513 136.537 267.802 109.829C307.417 135.833 332.745 105.653 298.99 67.7645" fill="#EA3B26"/>
<path fill-rule="evenodd" clip-rule="evenodd" d="M296.677 65.6648C281.865 48.304 273.262 42.421 260.887 53.1254C275.415 50.9434 273.868 74.1433 295.278 74.3831C300.472 74.4413 306.19 73.0629 309.518 72.0038C304.909 71.2479 299.836 69.3601 296.677 65.6648" fill="#F15436"/>
<path fill-rule="evenodd" clip-rule="evenodd" d="M294.365 63.5653C281.572 47.7364 271.907 42.7127 260.962 53.0999C275.871 47.5361 275.262 71.2796 295.461 71.5647C299.248 71.6182 304.173 69.6699 306.61 68.9343C302.955 68.6964 297.044 66.8735 294.365 63.5653" fill="#F76C46"/>
<path fill-rule="evenodd" clip-rule="evenodd" d="M292.147 60.403C280.199 46.9843 264.632 39.6347 261.038 53.0739C276.358 44.1211 278.352 68.1664 295.302 68.4547C298.076 68.5018 302.135 66.396 303.906 65.8789C298.187 65.3344 294.395 62.9285 292.147 60.403" fill="#FE8556"/>
<mask id="mask6_749_5641" style="mask-type:alpha" maskUnits="userSpaceOnUse" x="280" y="22" width="32" height="38">
<path fill-rule="evenodd" clip-rule="evenodd" d="M311.639 22H280.498V59.9648H311.639V22Z" fill="white"/>
</mask>
<g mask="url(#mask6_749_5641)">
<path fill-rule="evenodd" clip-rule="evenodd" d="M280.498 57.6123C284.42 41.9451 295.293 37.7066 309.77 21.9999C313.349 29.0528 312.17 44.0709 302.876 54.3641C293.583 64.6574 280.498 57.6123 280.498 57.6123" fill="#FE8556"/>
</g>
<path fill-rule="evenodd" clip-rule="evenodd" d="M280.5 57.609C283.687 44.6234 292.696 40.2824 304.667 28.3544C307.613 34.1619 306.58 46.4587 298.927 54.9345C291.274 63.4102 280.5 57.609 280.5 57.609" fill="#F76C46"/>
<path fill-rule="evenodd" clip-rule="evenodd" d="M280.502 57.6058C282.955 47.3019 290.098 42.8586 299.563 34.7091C301.878 39.2712 300.989 48.8466 294.978 55.5049C288.966 62.163 280.502 57.6058 280.502 57.6058" fill="#F15436"/>
<path fill-rule="evenodd" clip-rule="evenodd" d="M280.504 57.6026C282.222 49.9803 287.501 45.4347 294.46 41.0637C296.143 44.3804 295.399 51.2345 291.028 56.0751C286.657 60.9158 280.504 57.6026 280.504 57.6026" fill="#EA3B26"/>
<mask id="mask7_749_5641" style="mask-type:alpha" maskUnits="userSpaceOnUse" x="324" y="76" width="28" height="17">
<path fill-rule="evenodd" clip-rule="evenodd" d="M324 76H352V93H324V76Z" fill="white"/>
</mask>
<g mask="url(#mask7_749_5641)">
<path fill-rule="evenodd" clip-rule="evenodd" d="M348.612 76C344.961 89.1258 338.902 99.9256 325.333 83.293C325.054 82.9508 323.947 82.4643 324.002 82.5327C333.297 94.21 338.802 94.6325 342.799 90.9429C346.149 87.8498 348.268 79.7168 352 76.3051L348.612 76Z" fill="#85A046"/>
</g>
<mask id="mask8_749_5641" style="mask-type:alpha" maskUnits="userSpaceOnUse" x="361" y="48" width="34" height="15">
<path fill-rule="evenodd" clip-rule="evenodd" d="M361 48H395V63H361V48Z" fill="white"/>
</mask>
<g mask="url(#mask8_749_5641)">
<path fill-rule="evenodd" clip-rule="evenodd" d="M361.008 52.7775C371.428 47.7489 379.169 48.8711 395 48C393.29 53.6269 389.133 60.1691 374.665 62.6672C360.197 65.1655 361.008 52.7775 361.008 52.7775" fill="#B6B644"/>
</g>
<path fill-rule="evenodd" clip-rule="evenodd" d="M361 52.83C369.546 48.5154 376.475 49.1508 389 49C387.594 53.5306 383.464 59.0615 372.227 60.7929C360.99 62.5243 361 52.83 361 52.83" fill="#85A046"/>
<path fill-rule="evenodd" clip-rule="evenodd" d="M361 53.0689C367.669 49.6034 373.782 49.7652 383 50.2789C381.899 53.6015 377.8 57.956 369.793 58.9084C361.787 59.8608 361 53.0689 361 53.0689" fill="#538948"/>
<path fill-rule="evenodd" clip-rule="evenodd" d="M361 52.0696C365.793 48.7086 371.082 48.3967 377 49.7491C376.203 52.5457 372.145 56.6508 367.361 56.9847C362.577 57.3185 361 52.0696 361 52.0696" fill="#22734A"/>
<mask id="mask9_749_5641" style="mask-type:alpha" maskUnits="userSpaceOnUse" x="320" y="27" width="57" height="65">
<path fill-rule="evenodd" clip-rule="evenodd" d="M320 27H377V92H320V27Z" fill="white"/>
</mask>
<g mask="url(#mask9_749_5641)">
<path fill-rule="evenodd" clip-rule="evenodd" d="M362.38 35.9821C357.131 36.3179 354.075 40.5707 354.255 45.1887C354.279 45.8205 354.214 51.1274 352.24 52.7665C350.996 53.7999 348.327 56.3575 347.776 64.9495C347.694 66.2324 347.608 67.2506 347.669 68.8342C347.685 69.2556 347.668 71.3289 344.468 76.6601C346.487 75.5697 347.64 73.0832 347.296 74.0377C346.669 75.7794 346.324 76.8016 343.855 81.8133C346.23 80.3303 348.132 75.5551 348.032 76.055C346.906 81.6662 336.327 101.029 321.354 82.9652C321.071 82.6229 319.947 82.1366 320.002 82.205C338 104.459 345.223 82.5575 351.19 77.3636C349.961 79.1437 349.598 82.7691 350.036 82.6047C352.666 76.452 355.049 74.6242 355.621 74.2794C361.284 70.8684 366.958 61.8285 366.752 57.0969C366.664 55.0567 366.307 53.5492 366.09 52.5161C365.776 51.013 365.784 47.7292 367.035 45.3766C368.441 42.7318 368.811 40.1626 368.3 38.3305C367.894 36.433 375.364 31.3056 377 27C376.187 27.9311 375.097 29.4394 373.824 30.6399C370.912 33.3866 367.412 35.9066 366.725 36.0836C364.991 36.5301 363.699 35.8977 362.38 35.9821" fill="#22734A"/>
</g>
<path fill-rule="evenodd" clip-rule="evenodd" d="M361.382 37.0056C356.966 37.1096 354.564 41.3307 354.716 45.4221C354.736 45.9818 354.638 50.6185 353.064 52.1357C352.065 53.1004 349.581 55.5861 349.117 63.1983C348.967 65.6577 348.529 72.2016 351.355 72.9118C356.361 74.17 365.37 61.6434 365.147 56.2451C365.073 54.4375 364.635 52.6991 364.453 51.7839C364.188 50.4524 364.122 47.6002 365.02 45.491C367.018 40.7465 366.035 36.832 361.382 37.0056" fill="#538948"/>
<path fill-rule="evenodd" clip-rule="evenodd" d="M361.62 40.0035C357.594 39.8693 355.244 43.5735 355.382 46.9617C355.401 47.4252 355.258 51.1908 353.929 52.5213C353.078 53.3761 350.513 55.6847 350.089 61.9884C349.952 64.0252 349.639 69.3382 352.22 69.9262C356.792 70.9681 364.997 60.7054 364.794 56.2351C364.726 54.7382 364.155 52.8397 363.988 52.0819C363.746 50.9792 363.593 48.6825 364.22 46.9076C365.636 42.8109 365.323 40.0522 361.62 40.0035" fill="#85A046"/>
<path fill-rule="evenodd" clip-rule="evenodd" d="M362.749 43.0283C359.508 42.6667 357.427 45.8416 357.539 48.5245C357.554 48.8914 357.376 51.7876 356.432 52.9268C355.818 53.6684 353.397 55.7864 353.055 60.778C352.944 62.3908 352.794 66.475 354.877 66.9407C358.566 67.7656 365.161 59.7673 364.997 56.2275C364.942 55.0423 364.279 53.0075 364.144 52.4074C363.949 51.5344 363.717 49.7911 363.993 48.3529C364.653 44.9148 365.093 43.2897 362.749 43.0283" fill="#B6B644"/>
<path fill-rule="evenodd" clip-rule="evenodd" d="M356 50.2812C348.919 44.5517 333.173 39.2482 320.022 31C319.594 37.4535 325.493 49.4429 336.635 56.4135C349.952 64.7457 356 50.2812 356 50.2812" fill="#B6B644"/>
<path fill-rule="evenodd" clip-rule="evenodd" d="M356 49.3707C349.751 44.4484 337.736 40.5808 327.021 35C326.678 40.077 330.528 49.0085 340.048 54.9552C350.981 61.769 356 49.3707 356 49.3707" fill="#85A046"/>
<path fill-rule="evenodd" clip-rule="evenodd" d="M356 49.7656C350.14 45.2062 341.044 42.4228 332.025 39C331.743 43.1605 333.787 49.8456 342.354 55.3051C351.661 61.2168 356 49.7656 356 49.7656" fill="#538948"/>
<path fill-rule="evenodd" clip-rule="evenodd" d="M355 49.51C350.018 45.5443 344.615 44.0192 338.05 43C337.852 46.0108 337.91 50.0455 344.808 54.7392C351.705 59.4329 355 49.51 355 49.51" fill="#22734A"/>
<mask id="mask10_749_5641" style="mask-type:alpha" maskUnits="userSpaceOnUse" x="211" y="18" width="26" height="26">
<path fill-rule="evenodd" clip-rule="evenodd" d="M237 18H211V44H237V18Z" fill="white"/>
</mask>
<g mask="url(#mask10_749_5641)">
<path fill-rule="evenodd" clip-rule="evenodd" d="M237 41.2389C232.562 30.1691 219.636 21.9894 211.679 17.9999C209.678 23.4881 212 34.3432 219.942 40.9814C227.884 47.6196 237 41.2389 237 41.2389" fill="#0BA6DA"/>
</g>
<path fill-rule="evenodd" clip-rule="evenodd" d="M218.24 50.202C235.055 30.3567 243.285 22.9769 256.885 34.3925C256.293 34.4546 273.523 39.6979 272.988 39.831C272.548 39.9404 254.333 34.9288 253.929 35.0826C242.763 39.323 244.338 59.7396 222.785 60.3317C208.863 59.2967 196.487 64.8675 195 63.8827C209.247 57.3418 214.607 54.4903 218.24 50.202" fill="#0088D6"/>
<path fill-rule="evenodd" clip-rule="evenodd" d="M219.63 48.2944C234.465 30.7091 243.155 24.6872 256 35.1507C241.433 34.0777 243.103 56.3528 221.217 56.9696C215.908 57.1193 211.422 56.7182 208 55.7199C210.452 54.616 216.467 52.0376 219.63 48.2944" fill="#089CD9"/>
<path fill-rule="evenodd" clip-rule="evenodd" d="M222.441 45.7073C235.085 29.1314 244.099 24.0382 256 34.2927C241.358 30.3261 241.875 53.3233 221.474 53.9862C217.65 54.1106 214.474 53.372 212 52.6566C214.122 51.6564 219.792 49.1716 222.441 45.7073" fill="#0FB1DC"/>
<path fill-rule="evenodd" clip-rule="evenodd" d="M224.025 44.4055C234.926 29.5564 244.608 25.6293 256 35.2422C240.245 28.279 238.422 51.0961 221.203 51.9778C218.385 52.1219 215.8 51.5346 214 51.0737C215.867 50.2213 221.798 47.4392 224.025 44.4055" fill="#17C5DF"/>
<path fill-rule="evenodd" clip-rule="evenodd" d="M236 39.0703C236 39.0703 219.856 25.0855 193 21C193 29.3281 201.147 41.5845 214.274 46.7698C227.4 51.9552 236 39.0703 236 39.0703" fill="#22E3E3"/>
<path fill-rule="evenodd" clip-rule="evenodd" d="M236 38.7239C236 38.7239 222.484 27.3289 200 24C200 30.7858 206.821 40.7725 217.811 44.9977C228.8 49.2227 236 38.7239 236 38.7239" fill="#17C5DF"/>
<path fill-rule="evenodd" clip-rule="evenodd" d="M236 40.0469C236 40.0469 225.112 30.7237 207 28C207 33.5521 212.495 41.7229 221.347 45.1798C230.2 48.6369 236 40.0469 236 40.0469" fill="#0BA6DA"/>
<path fill-rule="evenodd" clip-rule="evenodd" d="M236 39.7005C236 39.7005 227.74 32.9671 214 31C214 35.0096 218.169 40.9111 224.884 43.4077C231.6 45.9043 236 39.7005 236 39.7005" fill="#0088D6"/>
<g filter="url(#filter0_d_749_5641)">
<ellipse cx="161" cy="50.9697" rx="47" ry="46.9697" fill="white"/>
</g>
<mask id="mask11_749_5641" style="mask-type:alpha" maskUnits="userSpaceOnUse" x="150" y="30" width="37" height="25">
<path fill-rule="evenodd" clip-rule="evenodd" d="M150.347 30.303H186.693V54.101H150.347V30.303Z" fill="white"/>
</mask>
<g mask="url(#mask11_749_5641)">
<path fill-rule="evenodd" clip-rule="evenodd" d="M150.347 46.9454C159.345 36.1887 176.516 31.8207 186.692 30.3029C186.813 37.1949 180.202 48.4958 169.047 52.9866C157.891 57.4775 150.347 46.9454 150.347 46.9454" fill="#DD4773"/>
</g>
<path fill-rule="evenodd" clip-rule="evenodd" d="M170.4 83.8968C171.168 85.3799 171.95 87.1213 172.762 89.0017C178.228 101.656 187.315 121.704 202.987 118.981C187.185 116.674 181.166 104.729 175.411 88.5035C174.779 86.7208 174.273 84.8308 173.627 82.9091L170.4 83.8968Z" fill="#E56188"/>
<mask id="mask12_749_5641" style="mask-type:alpha" maskUnits="userSpaceOnUse" x="114" y="32" width="91" height="96">
<path fill-rule="evenodd" clip-rule="evenodd" d="M114 32.8081H204.24V128H114V32.8081Z" fill="white"/>
</mask>
<g mask="url(#mask12_749_5641)">
<path fill-rule="evenodd" clip-rule="evenodd" d="M167.944 66.2695C154.921 38.1773 147.116 27.1323 128.437 35.5784C128.736 35.7049 125.036 36.5399 121.133 37.0075C117.557 37.4356 113.755 37.4813 114.012 37.5859C117.488 38.9955 131.001 36.9498 131.431 37.2662C143.152 45.8849 136.419 67.4584 160.561 75.4659C161.841 75.8903 166.077 76.9805 167.76 79.5262C169.202 81.7075 170.472 85.1217 171.795 89.041C176.599 103.268 185.181 127.966 204.24 128C187.517 124.366 178.769 106.744 175.098 89.3515C173.671 82.5904 172.027 75.0756 167.944 66.2695" fill="#D42E5E"/>
</g>
<path fill-rule="evenodd" clip-rule="evenodd" d="M166.413 63.2828C155.233 37.4482 147.26 27.4048 129.04 35.5962C146.116 39.1467 136.794 65.0914 161.708 73.077C167.752 75.0142 174.914 75.4434 179.173 75.3896C174.058 72.8386 168.799 68.7838 166.413 63.2828" fill="#DD4773"/>
<path fill-rule="evenodd" clip-rule="evenodd" d="M164.285 59.7245C154.941 36.807 145.445 27.5503 129.04 35.7452C147.286 36.0891 139.313 61.9273 162.75 69.4063C167.144 70.8082 173.569 70.288 176.667 70.2954C172.491 68.7257 166.245 64.5162 164.285 59.7245" fill="#E56188"/>
<path fill-rule="evenodd" clip-rule="evenodd" d="M162.433 55.4283C152.25 35.2467 145.963 28.8435 129.04 35.1243C149.351 32.1924 143.976 59.3997 163.399 66.0981C166.577 67.1941 171.949 66.2355 174.16 66.291C167.754 63.5039 164.325 59.1777 162.433 55.4283" fill="#EA6D93"/>
<path fill-rule="evenodd" clip-rule="evenodd" d="M150.347 48.1203C165.296 35.4364 178.938 39.1246 204.24 34.0606C202.738 43.648 190.934 57.6795 174.542 61.1388C158.15 64.5982 150.347 48.1203 150.347 48.1203" fill="#EE7A9D"/>
<path fill-rule="evenodd" clip-rule="evenodd" d="M150.347 46.7603C162.878 36.2152 174.964 38.446 195.467 35.3131C194.21 43.1973 184.317 54.6213 170.597 57.4661C156.878 60.3109 150.347 46.7603 150.347 46.7603" fill="#E56188"/>
<path fill-rule="evenodd" clip-rule="evenodd" d="M150.347 46.6532C160.112 38.2476 170.312 39.0241 185.44 37.8182C184.463 43.999 176.756 52.8157 166.09 55.0458C155.424 57.2759 150.347 46.6532 150.347 46.6532" fill="#DD4773"/>
<path fill-rule="evenodd" clip-rule="evenodd" d="M150.347 47.9115C157.345 41.7587 165.629 41.1001 175.413 41.7993C174.716 46.1963 169.196 52.2955 161.584 53.8821C153.971 55.4686 150.347 47.9115 150.347 47.9115" fill="#D42E5E"/>
<defs>
<filter id="filter0_d_749_5641" x="76" y="-34" width="170" height="169.939" filterUnits="userSpaceOnUse" color-interpolation-filters="sRGB">
<feFlood flood-opacity="0" result="BackgroundImageFix"/>
<feColorMatrix in="SourceAlpha" type="matrix" values="0 0 0 0 0 0 0 0 0 0 0 0 0 0 0 0 0 0 127 0" result="hardAlpha"/>
<feOffset/>
<feGaussianBlur stdDeviation="19"/>
<feColorMatrix type="matrix" values="0 0 0 0 0 0 0 0 0 0 0 0 0 0 0 0 0 0 0.35 0"/>
<feBlend mode="normal" in2="BackgroundImageFix" result="effect1_dropShadow_749_5641"/>
<feBlend mode="normal" in="SourceGraphic" in2="effect1_dropShadow_749_5641" result="shape"/>
</filter>
</defs>
</svg>
