<svg width="30" height="28" viewBox="0 0 30 28" fill="none" xmlns="http://www.w3.org/2000/svg">
<path d="M5.33496 27.9297H25.3447C28.4062 27.9297 29.9297 26.4062 29.9297 23.3887V5.50293C29.9297 2.48535 28.4062 0.961914 25.3447 0.961914H5.33496C2.27344 0.961914 0.735352 2.4707 0.735352 5.50293V23.3887C0.735352 26.4209 2.27344 27.9297 5.33496 27.9297ZM5.11523 25.5713C3.81152 25.5713 3.09375 24.8828 3.09375 23.5205V9.70703C3.09375 8.35938 3.81152 7.65625 5.11523 7.65625H25.5352C26.8389 7.65625 27.5713 8.35938 27.5713 9.70703V23.5205C27.5713 24.8828 26.8389 25.5713 25.5352 25.5713H5.11523ZM12.4834 12.915H13.3477C13.8604 12.915 14.0215 12.7686 14.0215 12.2559V11.3916C14.0215 10.8789 13.8604 10.7178 13.3477 10.7178H12.4834C11.9707 10.7178 11.7949 10.8789 11.7949 11.3916V12.2559C11.7949 12.7686 11.9707 12.915 12.4834 12.915ZM17.3467 12.915H18.2109C18.7236 12.915 18.8994 12.7686 18.8994 12.2559V11.3916C18.8994 10.8789 18.7236 10.7178 18.2109 10.7178H17.3467C16.834 10.7178 16.6582 10.8789 16.6582 11.3916V12.2559C16.6582 12.7686 16.834 12.915 17.3467 12.915ZM22.21 12.915H23.0742C23.5869 12.915 23.7627 12.7686 23.7627 12.2559V11.3916C23.7627 10.8789 23.5869 10.7178 23.0742 10.7178H22.21C21.6973 10.7178 21.5361 10.8789 21.5361 11.3916V12.2559C21.5361 12.7686 21.6973 12.915 22.21 12.915ZM7.62012 17.7051H8.46973C8.99707 17.7051 9.1582 17.5586 9.1582 17.0459V16.1816C9.1582 15.6689 8.99707 15.5225 8.46973 15.5225H7.62012C7.09277 15.5225 6.93164 15.6689 6.93164 16.1816V17.0459C6.93164 17.5586 7.09277 17.7051 7.62012 17.7051ZM12.4834 17.7051H13.3477C13.8604 17.7051 14.0215 17.5586 14.0215 17.0459V16.1816C14.0215 15.6689 13.8604 15.5225 13.3477 15.5225H12.4834C11.9707 15.5225 11.7949 15.6689 11.7949 16.1816V17.0459C11.7949 17.5586 11.9707 17.7051 12.4834 17.7051ZM17.3467 17.7051H18.2109C18.7236 17.7051 18.8994 17.5586 18.8994 17.0459V16.1816C18.8994 15.6689 18.7236 15.5225 18.2109 15.5225H17.3467C16.834 15.5225 16.6582 15.6689 16.6582 16.1816V17.0459C16.6582 17.5586 16.834 17.7051 17.3467 17.7051ZM22.21 17.7051H23.0742C23.5869 17.7051 23.7627 17.5586 23.7627 17.0459V16.1816C23.7627 15.6689 23.5869 15.5225 23.0742 15.5225H22.21C21.6973 15.5225 21.5361 15.6689 21.5361 16.1816V17.0459C21.5361 17.5586 21.6973 17.7051 22.21 17.7051ZM7.62012 22.5098H8.46973C8.99707 22.5098 9.1582 22.3486 9.1582 21.8359V20.9717C9.1582 20.459 8.99707 20.3125 8.46973 20.3125H7.62012C7.09277 20.3125 6.93164 20.459 6.93164 20.9717V21.8359C6.93164 22.3486 7.09277 22.5098 7.62012 22.5098ZM12.4834 22.5098H13.3477C13.8604 22.5098 14.0215 22.3486 14.0215 21.8359V20.9717C14.0215 20.459 13.8604 20.3125 13.3477 20.3125H12.4834C11.9707 20.3125 11.7949 20.459 11.7949 20.9717V21.8359C11.7949 22.3486 11.9707 22.5098 12.4834 22.5098ZM17.3467 22.5098H18.2109C18.7236 22.5098 18.8994 22.3486 18.8994 21.8359V20.9717C18.8994 20.459 18.7236 20.3125 18.2109 20.3125H17.3467C16.834 20.3125 16.6582 20.459 16.6582 20.9717V21.8359C16.6582 22.3486 16.834 22.5098 17.3467 22.5098Z" fill="#61BBE6"/>
</svg>
