<svg width="22" height="22" viewBox="0 0 22 22" fill="none" xmlns="http://www.w3.org/2000/svg">
<path d="M11.0605 21.2715C16.7246 21.2715 21.373 16.6133 21.373 10.9492C21.373 5.29492 16.7148 0.636719 11.0605 0.636719C5.39648 0.636719 0.748047 5.29492 0.748047 10.9492C0.748047 16.6133 5.40625 21.2715 11.0605 21.2715ZM11.0605 18.7031C6.77344 18.7031 3.32617 15.2461 3.32617 10.9492C3.32617 6.66211 6.76367 3.20508 11.0605 3.20508C15.3477 3.20508 18.8047 6.66211 18.8047 10.9492C18.8145 15.2461 15.3574 18.7031 11.0605 18.7031ZM14.8105 8.51758L15.5039 7.82422C15.875 7.45312 15.8945 6.98438 15.543 6.64258L15.2891 6.38867C14.9375 6.03711 14.4688 6.05664 14.1074 6.42773L13.4141 7.12109L14.8105 8.51758ZM8.23828 15.0801L14.2246 9.11328L12.8086 7.70703L6.8418 13.6836L6.32422 14.9922C6.17773 15.373 6.53906 15.7148 6.90039 15.5879L8.23828 15.0801Z" fill="#61BBE6"/>
</svg>
