<svg width="21" height="21" viewBox="0 0 21 21" fill="none" xmlns="http://www.w3.org/2000/svg">
<g clip-path="url(#clip0_1225_8006)">
<path d="M0.0232184 9.25408C0.284522 7.25204 1.24473 5.24419 1.76419 4.20576C2.54738 2.6389 3.94011 1.42078 5.5939 0.724047C7.24769 0.0273176 9.77186 -0.0593801 11.0774 0.0278019C12.383 0.114984 15.1682 0.114742 16.5609 0.898169C17.9536 1.6816 19.4333 4.2927 20.1296 5.94649C20.8258 7.60028 20.9999 8.99277 20.9999 10.8207C20.9999 12.6486 20.3906 14.2152 19.8685 15.4338C19.3464 16.6524 18.4758 18.306 17.0835 19.0906C15.6913 19.8753 12.8186 20.5703 10.9038 20.4834C8.98891 20.3964 5.76972 20.2223 3.85366 19.0906C1.93759 17.959 1.24231 15.8697 0.807129 14.0423C0.371946 12.2149 -0.11264 10.2969 0.0232184 9.25408Z" fill="#FFDDE8"/>
<path d="M10.6253 19.4438C15.6899 19.4438 19.7957 15.3381 19.7957 10.2734C19.7957 5.20879 15.6899 1.10309 10.6253 1.10309C5.56066 1.10309 1.45496 5.20879 1.45496 10.2734C1.45496 15.3381 5.56066 19.4438 10.6253 19.4438Z" fill="#FDBDD0"/>
<path d="M7.00942 16.3447C7.00942 16.3447 4.82817 14.7868 4.0491 12.4496C3.27003 10.1124 3.89314 6.60697 6.30833 4.58144C8.72351 2.55591 12.3067 2.78936 14.0985 4.03606C15.8904 5.28277 17.5262 7.15234 17.7599 9.87896C17.9936 12.6056 16.5905 14.9425 15.0333 15.9543C13.4762 16.9661 9.19067 17.9029 7.00942 16.3447Z" fill="#F8A5BE"/>
</g>
<path d="M6.25 10.75L8.5 13L13.75 7.75" stroke="white" stroke-width="2" stroke-linecap="round" stroke-linejoin="round"/>
<defs>
<clipPath id="clip0_1225_8006">
<rect width="21" height="20.4897" fill="white"/>
</clipPath>
</defs>
</svg>
