<svg width="35" height="35" viewBox="0 0 35 35" fill="none" xmlns="http://www.w3.org/2000/svg">
<g clip-path="url(#clip0_1225_7971)">
<path d="M0.0387532 15.4236C0.474259 12.0868 2.07461 8.74042 2.94038 7.0097C4.24569 4.39827 6.5669 2.36806 9.32323 1.20685C12.0795 0.045631 16.2865 -0.0988651 18.4624 0.0464383C20.6383 0.191742 25.2804 0.191338 27.6016 1.49705C29.9228 2.80276 32.3889 7.1546 33.5493 9.91092C34.7097 12.6672 34.9999 14.9881 34.9999 18.0346C34.9999 21.0811 33.9844 23.6921 33.1142 25.7232C32.244 27.7542 30.793 30.5101 28.4726 31.8178C26.1522 33.1256 21.3644 34.2839 18.173 34.139C14.9816 33.9941 9.61626 33.7039 6.42282 31.8178C3.22937 29.9317 2.07058 26.4497 1.34527 23.404C0.619966 20.3582 -0.187678 17.1616 0.0387532 15.4236Z" fill="#EBEBEB"/>
<path d="M17.7088 32.4063C26.1499 32.4063 32.9928 25.5635 32.9928 17.1224C32.9928 8.68133 26.1499 1.8385 17.7088 1.8385C9.26777 1.8385 2.42493 8.68133 2.42493 17.1224C2.42493 25.5635 9.26777 32.4063 17.7088 32.4063Z" fill="#DEDEDE"/>
<path d="M11.6824 27.2412C11.6824 27.2412 8.04698 24.6447 6.74854 20.7493C5.45009 16.854 6.48861 11.0116 10.5139 7.63571C14.5392 4.25982 20.5112 4.64891 23.4976 6.72675C26.484 8.80459 29.2105 11.9205 29.6 16.4649C29.9894 21.0093 27.6509 24.9042 25.0556 26.5905C22.4603 28.2769 15.3178 29.8381 11.6824 27.2412Z" fill="#BABABA"/>
</g>
<defs>
<clipPath id="clip0_1225_7971">
<rect width="35" height="34.1496" fill="white"/>
</clipPath>
</defs>
</svg>
