<svg width="35" height="35" viewBox="0 0 35 35" fill="none" xmlns="http://www.w3.org/2000/svg">
<g clip-path="url(#clip0_181_775)">
<path d="M0.0387456 15.4236C0.474252 12.0869 2.07461 8.74045 2.94037 7.00973C4.24568 4.3983 6.56689 2.36809 9.32322 1.20688C12.0795 0.0456615 16.2865 -0.0988345 18.4624 0.0464688C20.6383 0.191772 25.2803 0.191369 27.6016 1.49708C29.9228 2.80279 32.3889 7.15463 33.5493 9.91095C34.7097 12.6673 34.9999 14.9881 34.9999 18.0346C34.9999 21.0811 33.9844 23.6922 33.1142 25.7232C32.244 27.7542 30.793 30.5101 28.4726 31.8179C26.1522 33.1256 21.3644 34.284 18.173 34.1391C14.9816 33.9942 9.61625 33.704 6.42281 31.8179C3.22936 29.9317 2.07057 26.4497 1.34526 23.404C0.619959 20.3583 -0.187685 17.1616 0.0387456 15.4236Z" fill="#FFDDE8"/>
<path d="M17.7089 32.4063C26.1499 32.4063 32.9928 25.5635 32.9928 17.1224C32.9928 8.68133 26.1499 1.8385 17.7089 1.8385C9.26778 1.8385 2.42493 8.68133 2.42493 17.1224C2.42493 25.5635 9.26778 32.4063 17.7089 32.4063Z" fill="#FDBDD0"/>
<path d="M11.6824 27.2412C11.6824 27.2412 8.04699 24.6448 6.74854 20.7494C5.45009 16.8541 6.48861 11.0117 10.5139 7.63577C14.5392 4.25988 20.5112 4.64897 23.4976 6.72681C26.484 8.80465 29.2105 11.9206 29.6 16.465C29.9895 21.0093 27.6509 24.9043 25.0556 26.5906C22.4603 28.2769 15.3178 29.8381 11.6824 27.2412Z" fill="#F8A5BE"/>
</g>
<defs>
<clipPath id="clip0_181_775">
<rect width="35" height="34.1496" fill="white"/>
</clipPath>
</defs>
</svg>
