<svg width="31" height="30" viewBox="0 0 31 30" fill="none" xmlns="http://www.w3.org/2000/svg">
<path d="M15.6621 29.0283C16.1602 29.0283 16.8779 28.6035 17.5518 28.1641C25.623 22.9053 30.8965 16.6357 30.8965 10.3516C30.8965 4.59473 26.8975 0.727539 22.1074 0.727539C19.1191 0.727539 16.9512 2.36816 15.6621 4.77051C14.3877 2.38281 12.2051 0.727539 9.2168 0.727539C4.42676 0.727539 0.427734 4.59473 0.427734 10.3516C0.427734 16.6357 5.70117 22.9053 13.7725 28.1641C14.4463 28.6035 15.1641 29.0283 15.6621 29.0283ZM17.332 19.6973C17.332 20.6055 16.585 21.2354 15.6621 21.2354C14.7539 21.2354 14.0068 20.6055 14.0068 19.6973V15.7129L14.168 13.5156L13.2158 14.541L12.4395 15.3613C12.1758 15.6543 11.7803 15.874 11.3701 15.874C10.5352 15.874 9.91992 15.2881 9.91992 14.4824C9.91992 14.0283 10.0664 13.7061 10.4326 13.3838L14.3438 9.83887C14.7686 9.47266 15.1494 9.25293 15.6621 9.25293C16.1895 9.25293 16.5703 9.47266 16.9951 9.83887L20.9062 13.3838C21.2725 13.7061 21.4189 14.0283 21.4189 14.4824C21.4189 15.2881 20.7891 15.874 19.9688 15.874C19.5732 15.874 19.1338 15.6543 18.8994 15.3613L18.123 14.541L17.1709 13.5156L17.332 15.7129V19.6973Z" fill="#4EC19F"/>
</svg>
