<svg width="21" height="21" viewBox="0 0 21 21" fill="none" xmlns="http://www.w3.org/2000/svg">
<path d="M1.80273 11.9512H6.13867C6.62695 11.9512 6.92969 11.7266 7.03711 11.2871L8.38477 5.07617L10.8555 19.9785C10.9922 20.7988 12.2422 20.7891 12.4082 19.9785L14.7812 8.77734L15.2598 11.209C15.3672 11.707 15.6602 11.9512 16.168 11.9512H19.9766C20.4258 11.9512 20.7773 11.5996 20.7773 11.1602C20.7773 10.7012 20.4355 10.3594 19.9766 10.3594H16.5781L15.4844 5.4668C15.3086 4.68555 14.1367 4.69531 13.9512 5.49609L11.627 15.9258L9.14648 0.876953C9.01953 0.0859375 7.85742 0.0664062 7.68164 0.876953L5.63086 10.3594H1.80273C1.34375 10.3594 0.992188 10.7207 0.992188 11.1602C0.992188 11.5996 1.34375 11.9512 1.80273 11.9512Z" fill="#B4318B"/>
</svg>
