<svg width="160" height="160" viewBox="0 0 160 160" fill="none" xmlns="http://www.w3.org/2000/svg">
<rect width="96" height="72" transform="matrix(0.866025 0.5 -2.20305e-08 1 45 20)" fill="url(#paint0_linear_1623_9587)"/>
<rect width="96" height="72" transform="matrix(0.866025 0.5 -2.20305e-08 1 38 24)" fill="url(#paint1_linear_1623_9587)"/>
<rect width="96" height="72" transform="matrix(0.866025 0.5 -2.20305e-08 1 31 28)" fill="url(#paint2_linear_1623_9587)"/>
<path fill-rule="evenodd" clip-rule="evenodd" d="M38 48C38 47.4477 38.3877 47.2239 38.866 47.5L52.7224 55.5C53.2007 55.7761 53.5885 56.4477 53.5885 57C53.5885 57.5523 53.2007 57.7761 52.7224 57.5L38.866 49.5C38.3877 49.2239 38 48.5523 38 48ZM55.3205 58C55.3205 57.4477 55.7082 57.2239 56.1865 57.5L59.6506 59.5C60.1289 59.7761 60.5167 60.4477 60.5167 61C60.5167 61.5523 60.1289 61.7761 59.6506 61.5L56.1865 59.5C55.7082 59.2239 55.3205 58.5523 55.3205 58ZM63.1147 61.5C62.6364 61.2239 62.2487 61.4477 62.2487 62C62.2487 62.5523 62.6364 63.2239 63.1147 63.5L70.0429 67.5C70.5212 67.7761 70.909 67.5523 70.909 67C70.909 66.4477 70.5212 65.7761 70.0429 65.5L63.1147 61.5ZM72.641 68C72.641 67.4477 73.0287 67.2239 73.507 67.5L76.9711 69.5C77.4494 69.7761 77.8372 70.4477 77.8372 71C77.8372 71.5523 77.4494 71.7761 76.9711 71.5L73.507 69.5C73.0287 69.2239 72.641 68.5523 72.641 68ZM80.4352 71.5C79.957 71.2239 79.5692 71.4477 79.5692 72C79.5692 72.5523 79.957 73.2239 80.4352 73.5L87.3634 77.5C87.8417 77.7761 88.2295 77.5523 88.2295 77C88.2295 76.4477 87.8417 75.7761 87.3634 75.5L80.4352 71.5ZM89.9615 78C89.9615 77.4477 90.3493 77.2239 90.8275 77.5L94.2917 79.5C94.7699 79.7761 95.1577 80.4477 95.1577 81C95.1577 81.5523 94.7699 81.7761 94.2917 81.5L90.8275 79.5C90.3493 79.2239 89.9615 78.5523 89.9615 78ZM97.7558 81.5C97.2775 81.2239 96.8897 81.4477 96.8897 82C96.8897 82.5523 97.2775 83.2239 97.7558 83.5L104.684 87.5C105.162 87.7761 105.55 87.5523 105.55 87C105.55 86.4477 105.162 85.7761 104.684 85.5L97.7558 81.5Z" fill="#359191"/>
<path fill-rule="evenodd" clip-rule="evenodd" d="M38 56C38 55.4477 38.3877 55.2239 38.866 55.5L52.7224 63.5C53.2007 63.7761 53.5885 64.4477 53.5885 65C53.5885 65.5523 53.2007 65.7761 52.7224 65.5L38.866 57.5C38.3877 57.2239 38 56.5523 38 56ZM55.3205 66C55.3205 65.4477 55.7082 65.2239 56.1865 65.5L59.6506 67.5C60.1289 67.7761 60.5167 68.4477 60.5167 69C60.5167 69.5523 60.1289 69.7761 59.6506 69.5L56.1865 67.5C55.7082 67.2239 55.3205 66.5523 55.3205 66ZM63.1147 69.5C62.6364 69.2239 62.2487 69.4477 62.2487 70C62.2487 70.5523 62.6364 71.2239 63.1147 71.5L70.0429 75.5C70.5212 75.7761 70.909 75.5523 70.909 75C70.909 74.4477 70.5212 73.7761 70.0429 73.5L63.1147 69.5ZM72.641 76C72.641 75.4477 73.0287 75.2239 73.507 75.5L76.9711 77.5C77.4494 77.7761 77.8372 78.4477 77.8372 79C77.8372 79.5523 77.4494 79.7761 76.9711 79.5L73.507 77.5C73.0287 77.2239 72.641 76.5523 72.641 76ZM80.4352 79.5C79.957 79.2239 79.5692 79.4477 79.5692 80C79.5692 80.5523 79.957 81.2239 80.4352 81.5L87.3634 85.5C87.8417 85.7761 88.2295 85.5523 88.2295 85C88.2295 84.4477 87.8417 83.7761 87.3634 83.5L80.4352 79.5ZM89.9615 86C89.9615 85.4477 90.3493 85.2239 90.8275 85.5L94.2917 87.5C94.7699 87.7761 95.1577 88.4477 95.1577 89C95.1577 89.5523 94.7699 89.7761 94.2917 89.5L90.8275 87.5C90.3493 87.2239 89.9615 86.5523 89.9615 86ZM97.7558 89.5C97.2775 89.2239 96.8897 89.4477 96.8897 90C96.8897 90.5523 97.2775 91.2239 97.7558 91.5L104.684 95.5C105.162 95.7761 105.55 95.5523 105.55 95C105.55 94.4477 105.162 93.7761 104.684 93.5L97.7558 89.5Z" fill="#DEE2E6"/>
<path fill-rule="evenodd" clip-rule="evenodd" d="M38 64C38 63.4477 38.3877 63.2239 38.866 63.5L52.7224 71.5C53.2007 71.7761 53.5885 72.4477 53.5885 73C53.5885 73.5523 53.2007 73.7761 52.7224 73.5L38.866 65.5C38.3877 65.2239 38 64.5523 38 64ZM55.3205 74C55.3205 73.4477 55.7082 73.2239 56.1865 73.5L59.6506 75.5C60.1289 75.7761 60.5167 76.4477 60.5167 77C60.5167 77.5523 60.1289 77.7761 59.6506 77.5L56.1865 75.5C55.7082 75.2239 55.3205 74.5523 55.3205 74ZM63.1147 77.5C62.6364 77.2239 62.2487 77.4477 62.2487 78C62.2487 78.5523 62.6364 79.2239 63.1147 79.5L70.0429 83.5C70.5212 83.7761 70.909 83.5523 70.909 83C70.909 82.4477 70.5212 81.7761 70.0429 81.5L63.1147 77.5ZM72.641 84C72.641 83.4477 73.0287 83.2239 73.507 83.5L76.9711 85.5C77.4494 85.7761 77.8372 86.4477 77.8372 87C77.8372 87.5523 77.4494 87.7761 76.9711 87.5L73.507 85.5C73.0287 85.2239 72.641 84.5523 72.641 84ZM80.4352 87.5C79.957 87.2239 79.5692 87.4477 79.5692 88C79.5692 88.5523 79.957 89.2239 80.4352 89.5L87.3634 93.5C87.8417 93.7761 88.2295 93.5523 88.2295 93C88.2295 92.4477 87.8417 91.7761 87.3634 91.5L80.4352 87.5ZM89.9615 94C89.9615 93.4477 90.3493 93.2239 90.8275 93.5L94.2917 95.5C94.7699 95.7761 95.1577 96.4477 95.1577 97C95.1577 97.5523 94.7699 97.7761 94.2917 97.5L90.8275 95.5C90.3493 95.2239 89.9615 94.5523 89.9615 94ZM97.7558 97.5C97.2775 97.2239 96.8897 97.4477 96.8897 98C96.8897 98.5523 97.2775 99.2239 97.7558 99.5L104.684 103.5C105.162 103.776 105.55 103.552 105.55 103C105.55 102.448 105.162 101.776 104.684 101.5L97.7558 97.5Z" fill="#DEE2E6"/>
<path fill-rule="evenodd" clip-rule="evenodd" d="M38 72C38 71.4477 38.3877 71.2239 38.866 71.5L52.7224 79.5C53.2007 79.7761 53.5885 80.4477 53.5885 81C53.5885 81.5523 53.2007 81.7761 52.7224 81.5L38.866 73.5C38.3877 73.2239 38 72.5523 38 72ZM55.3205 82C55.3205 81.4477 55.7082 81.2239 56.1865 81.5L59.6506 83.5C60.1289 83.7761 60.5167 84.4477 60.5167 85C60.5167 85.5523 60.1289 85.7761 59.6506 85.5L56.1865 83.5C55.7082 83.2239 55.3205 82.5523 55.3205 82ZM63.1147 85.5C62.6364 85.2239 62.2487 85.4477 62.2487 86C62.2487 86.5523 62.6364 87.2239 63.1147 87.5L70.0429 91.5C70.5212 91.7761 70.909 91.5523 70.909 91C70.909 90.4477 70.5212 89.7761 70.0429 89.5L63.1147 85.5ZM72.641 92C72.641 91.4477 73.0287 91.2239 73.507 91.5L76.9711 93.5C77.4494 93.7761 77.8372 94.4477 77.8372 95C77.8372 95.5523 77.4494 95.7761 76.9711 95.5L73.507 93.5C73.0287 93.2239 72.641 92.5523 72.641 92ZM80.4352 95.5C79.957 95.2239 79.5692 95.4477 79.5692 96C79.5692 96.5523 79.957 97.2239 80.4352 97.5L87.3634 101.5C87.8417 101.776 88.2295 101.552 88.2295 101C88.2295 100.448 87.8417 99.7761 87.3634 99.5L80.4352 95.5ZM89.9615 102C89.9615 101.448 90.3493 101.224 90.8275 101.5L94.2917 103.5C94.7699 103.776 95.1577 104.448 95.1577 105C95.1577 105.552 94.7699 105.776 94.2917 105.5L90.8275 103.5C90.3493 103.224 89.9615 102.552 89.9615 102ZM97.7558 105.5C97.2775 105.224 96.8897 105.448 96.8897 106C96.8897 106.552 97.2775 107.224 97.7558 107.5L104.684 111.5C105.162 111.776 105.55 111.552 105.55 111C105.55 110.448 105.162 109.776 104.684 109.5L97.7558 105.5Z" fill="#DEE2E6"/>
<path fill-rule="evenodd" clip-rule="evenodd" d="M38 80C38 79.4477 38.3877 79.2239 38.866 79.5L52.7224 87.5C53.2007 87.7761 53.5885 88.4477 53.5885 89C53.5885 89.5523 53.2007 89.7761 52.7224 89.5L38.866 81.5C38.3877 81.2239 38 80.5523 38 80ZM55.3205 90C55.3205 89.4477 55.7082 89.2239 56.1865 89.5L59.6506 91.5C60.1289 91.7761 60.5167 92.4477 60.5167 93C60.5167 93.5523 60.1289 93.7761 59.6506 93.5L56.1865 91.5C55.7082 91.2239 55.3205 90.5523 55.3205 90ZM63.1147 93.5C62.6364 93.2239 62.2487 93.4477 62.2487 94C62.2487 94.5523 62.6364 95.2239 63.1147 95.5L70.0429 99.5C70.5212 99.7761 70.909 99.5523 70.909 99C70.909 98.4477 70.5212 97.7761 70.0429 97.5L63.1147 93.5ZM72.641 100C72.641 99.4477 73.0287 99.2239 73.507 99.5L76.9711 101.5C77.4494 101.776 77.8372 102.448 77.8372 103C77.8372 103.552 77.4494 103.776 76.9711 103.5L73.507 101.5C73.0287 101.224 72.641 100.552 72.641 100ZM80.4352 103.5C79.957 103.224 79.5692 103.448 79.5692 104C79.5692 104.552 79.957 105.224 80.4352 105.5L87.3634 109.5C87.8417 109.776 88.2295 109.552 88.2295 109C88.2295 108.448 87.8417 107.776 87.3634 107.5L80.4352 103.5ZM89.9615 110C89.9615 109.448 90.3493 109.224 90.8275 109.5L94.2917 111.5C94.7699 111.776 95.1577 112.448 95.1577 113C95.1577 113.552 94.7699 113.776 94.2917 113.5L90.8275 111.5C90.3493 111.224 89.9615 110.552 89.9615 110ZM97.7558 113.5C97.2775 113.224 96.8897 113.448 96.8897 114C96.8897 114.552 97.2775 115.224 97.7558 115.5L104.684 119.5C105.162 119.776 105.55 119.552 105.55 119C105.55 118.448 105.162 117.776 104.684 117.5L97.7558 113.5Z" fill="#DEE2E6"/>
<path fill-rule="evenodd" clip-rule="evenodd" d="M38 88C38 87.4477 38.3877 87.2239 38.866 87.5L52.7224 95.5C53.2007 95.7761 53.5885 96.4477 53.5885 97C53.5885 97.5523 53.2007 97.7761 52.7224 97.5L38.866 89.5C38.3877 89.2239 38 88.5523 38 88ZM55.3205 98C55.3205 97.4477 55.7082 97.2239 56.1865 97.5L59.6506 99.5C60.1289 99.7761 60.5167 100.448 60.5167 101C60.5167 101.552 60.1289 101.776 59.6506 101.5L56.1865 99.5C55.7082 99.2239 55.3205 98.5523 55.3205 98ZM63.1147 101.5C62.6364 101.224 62.2487 101.448 62.2487 102C62.2487 102.552 62.6364 103.224 63.1147 103.5L70.0429 107.5C70.5212 107.776 70.909 107.552 70.909 107C70.909 106.448 70.5212 105.776 70.0429 105.5L63.1147 101.5ZM72.641 108C72.641 107.448 73.0287 107.224 73.507 107.5L76.9711 109.5C77.4494 109.776 77.8372 110.448 77.8372 111C77.8372 111.552 77.4494 111.776 76.9711 111.5L73.507 109.5C73.0287 109.224 72.641 108.552 72.641 108ZM80.4352 111.5C79.957 111.224 79.5692 111.448 79.5692 112C79.5692 112.552 79.957 113.224 80.4352 113.5L87.3634 117.5C87.8417 117.776 88.2295 117.552 88.2295 117C88.2295 116.448 87.8417 115.776 87.3634 115.5L80.4352 111.5ZM89.9615 118C89.9615 117.448 90.3493 117.224 90.8275 117.5L94.2917 119.5C94.7699 119.776 95.1577 120.448 95.1577 121C95.1577 121.552 94.7699 121.776 94.2917 121.5L90.8275 119.5C90.3493 119.224 89.9615 118.552 89.9615 118ZM97.7558 121.5C97.2775 121.224 96.8897 121.448 96.8897 122C96.8897 122.552 97.2775 123.224 97.7558 123.5L104.684 127.5C105.162 127.776 105.55 127.552 105.55 127C105.55 126.448 105.162 125.776 104.684 125.5L97.7558 121.5Z" fill="#DEE2E6"/>
<defs>
<linearGradient id="paint0_linear_1623_9587" x1="48" y1="0" x2="48" y2="72" gradientUnits="userSpaceOnUse">
<stop stop-color="#D7E4F1"/>
<stop offset="1" stop-color="#F1F3F5"/>
</linearGradient>
<linearGradient id="paint1_linear_1623_9587" x1="48" y1="0" x2="48" y2="72" gradientUnits="userSpaceOnUse">
<stop stop-color="#DEE2E6"/>
<stop offset="1" stop-color="#F8F9FA"/>
</linearGradient>
<linearGradient id="paint2_linear_1623_9587" x1="0" y1="0" x2="96" y2="-5.70477e-06" gradientUnits="userSpaceOnUse">
<stop stop-color="white"/>
<stop offset="1" stop-color="white"/>
</linearGradient>
</defs>
</svg>
