<svg width="141" height="29" viewBox="0 0 141 29" fill="none" xmlns="http://www.w3.org/2000/svg">
<path d="M3.25083 22.5475C4.96568 22.5475 5.93635 21.496 5.93635 19.6679V15.3322H9.49548C14.5592 15.3322 17.6653 12.6305 17.6653 7.7933C17.6653 3.24733 14.6077 0.302956 9.77051 0.302956H4.09208C1.56833 0.302956 0.597656 1.32216 0.597656 3.95915V19.6679C0.597656 21.5121 1.55215 22.5475 3.25083 22.5475ZM5.95253 11.3524V4.42831H8.97779C11.1618 4.42831 12.3751 5.69018 12.3751 7.89037C12.3751 10.4465 11.1456 11.3524 8.37921 11.3524H5.95253Z" fill="white"/>
<path d="M29.4428 20.2664H29.6855V20.6062C29.8958 21.8519 30.8017 22.5475 32.1283 22.5475C33.7461 22.5475 34.6521 21.5768 34.6521 19.7973V10.9642C34.6521 7.0653 31.9504 4.84893 27.1941 4.84893C25.188 4.84893 23.6511 5.18867 22.5025 5.73872C20.9009 6.49908 20.1891 7.55064 20.1891 8.6022C20.1891 9.60523 20.8685 10.3494 21.9848 10.3494C22.7937 10.3494 23.3276 10.1553 23.8614 9.81554C24.7836 9.15225 25.6572 8.66691 26.8543 8.66691C28.5045 8.66691 29.459 9.44345 29.459 10.8995V12.1451H25.641C21.6451 12.1613 19.2346 14.135 19.2346 17.3544C19.2346 20.4767 21.5156 22.5799 24.8968 22.5799C26.9514 22.5799 28.6339 21.7224 29.4428 20.2664ZM24.3468 16.9823C24.3468 15.769 25.2851 15.0248 26.8058 15.0248H29.459V16.7073C29.459 18.0177 28.2618 19.0369 26.7411 19.0369C25.3336 19.0369 24.3468 18.1957 24.3468 16.9823Z" fill="white"/>
<path d="M40.832 22.5475C42.3851 22.5475 43.2749 21.5283 43.2749 19.7649V8.65073H43.4043L47.2708 18.4869C47.9017 20.1047 48.6621 20.6547 49.7622 20.6547C50.8461 20.6547 51.5903 20.137 52.2212 18.4869L56.0716 8.65073H56.2172V19.7649C56.2172 21.5768 57.026 22.5475 58.5468 22.5475C60.0998 22.5475 60.9896 21.5283 60.9896 19.7649V3.58706C60.9896 1.38687 59.841 0.125 57.8349 0.125C56.0392 0.125 54.9876 0.933893 54.114 3.27968L49.8431 14.3292H49.6651L45.378 3.29586C44.5206 0.982427 43.4043 0.125 41.6894 0.125C39.7157 0.125 38.4862 1.43541 38.4862 3.58706V19.7649C38.4862 21.5768 39.2951 22.5475 40.832 22.5475Z" fill="white"/>
<path d="M66.2798 22.5637C67.7034 22.5637 68.4638 21.8357 68.9977 19.9591L69.8551 17.3221H77.2807L78.122 19.9591C78.6559 21.7872 79.4809 22.5637 80.9046 22.5637C82.4415 22.5637 83.4445 21.6577 83.4445 20.2503C83.4445 19.684 83.2989 19.0369 83.0077 18.131L78.1382 3.81355C77.2484 1.17656 76.0189 0.141178 73.6892 0.141178C71.3596 0.141178 70.0978 1.19274 69.2242 3.81355L64.3384 18.131C63.9664 19.2149 63.8208 19.8296 63.8208 20.3635C63.8208 21.6577 64.8238 22.5637 66.2798 22.5637ZM70.9552 13.4556L73.4628 5.0916H73.7216L76.1968 13.4556H70.9552Z" fill="white"/>
<path d="M91.2261 25.5728V19.684H91.4849C92.2291 21.5283 94.0086 22.5799 96.3544 22.5799C100.35 22.5799 102.712 19.6517 102.712 14.6851V12.6952C102.712 7.74477 100.367 4.84893 96.3868 4.84893C93.9925 4.84893 92.1482 6.01374 91.4525 7.84184H91.1937V7.3565C91.0643 5.80343 90.1421 4.96218 88.6052 4.96218C86.9551 4.96218 86.0491 5.98138 86.0491 7.80948V25.5728C86.0491 27.417 86.9551 28.4201 88.6376 28.4201C90.3039 28.4201 91.2261 27.417 91.2261 25.5728ZM91.2261 14.6689V12.8732C91.2261 10.3494 92.3909 8.87722 94.2999 8.87722C96.2412 8.87722 97.3575 10.3818 97.3575 13.0349V14.3939C97.3575 17.0147 96.2412 18.5516 94.3322 18.5516C92.4556 18.5516 91.2261 17.047 91.2261 14.6689Z" fill="white"/>
<path d="M111.028 25.5728V19.684H111.287C112.031 21.5283 113.81 22.5799 116.156 22.5799C120.152 22.5799 122.514 19.6517 122.514 14.6851V12.6952C122.514 7.74477 120.168 4.84893 116.188 4.84893C113.794 4.84893 111.95 6.01374 111.254 7.84184H110.995V7.3565C110.866 5.80343 109.944 4.96218 108.407 4.96218C106.757 4.96218 105.851 5.98138 105.851 7.80948V25.5728C105.851 27.417 106.757 28.4201 108.439 28.4201C110.106 28.4201 111.028 27.417 111.028 25.5728ZM111.028 14.6689V12.8732C111.028 10.3494 112.193 8.87722 114.102 8.87722C116.043 8.87722 117.159 10.3818 117.159 13.0349V14.3939C117.159 17.0147 116.043 18.5516 114.134 18.5516C112.257 18.5516 111.028 17.047 111.028 14.6689Z" fill="white"/>
<path d="M124.342 26.2684C124.342 26.8023 124.536 27.2714 124.908 27.6435C125.491 28.2098 126.526 28.5171 127.869 28.5171C131.832 28.5171 134.017 26.7861 135.408 22.7093L140.229 8.66691C140.407 8.13304 140.488 7.76095 140.488 7.38886C140.488 6.01374 139.452 5.01071 138.029 5.01071C136.637 5.01071 135.796 5.78725 135.408 7.42121L132.528 18.3736H132.318L129.535 7.42121C129.179 5.80343 128.29 5.01071 126.866 5.01071C125.394 5.01071 124.31 6.01374 124.31 7.40504C124.31 7.76095 124.374 8.14922 124.536 8.66691L129.325 22.5475C129.325 22.7416 129.212 23.3079 129.147 23.4535C128.856 24.2785 128.16 24.7962 127.287 24.7962C126.72 24.7801 126.429 24.6992 126.008 24.6992C125.022 24.6992 124.342 25.3625 124.342 26.2684Z" fill="white"/>
</svg>
