<svg width="30" height="45" viewBox="0 0 30 45" fill="none" xmlns="http://www.w3.org/2000/svg">
<path d="M15.6646 0C13.9877 0 12.4744 0.676166 11.3701 1.80311C9.73415 0.586011 6.13497 -1.53264 4.45808 1.75803C4.45808 1.75803 3.31288 3.96684 3.23108 7.97876C3.14928 11.9907 2.12679 14.1544 2.12679 14.1544C2.12679 14.1544 1.47239 15.7772 0.0409 15.5067L0 16.2731C0 16.2731 3.19018 17.1295 4.98978 15.3715C6.78937 13.6135 7.40286 11.5399 7.40286 11.5399C7.40286 11.5399 8.26176 9.19586 8.79346 5.95026C9.20245 3.47099 9.97955 3.06529 10.3476 3.02021C9.69325 4.10207 9.32515 5.36425 9.32515 6.71658C9.32515 10.458 12.1472 13.4782 15.6646 13.4782C19.182 13.4782 22.0041 10.5031 22.0041 6.76166C22.0041 3.02021 19.1411 0 15.6646 0Z" fill="#4EC19F"/>
<path d="M23.8037 24.6124C24.499 24.1616 25.1534 23.3953 25.317 22.8544C26.0941 20.3751 20.2045 15.4616 15.2556 15.2813C13.0061 14.9658 10.6748 15.5969 8.91615 17.5803L8.87525 17.6254C8.87525 17.6254 6.05317 20.871 6.17587 25.8746C6.29857 30.8782 7.64826 33.8534 8.01636 44.086H22.0041C26.3804 43.6352 29.8568 39.3528 29.8568 34.1238C29.8568 29.6611 27.3211 25.8746 23.8037 24.6124ZM21.1043 41.3363C17.5051 41.3363 14.6012 38.0907 14.6012 34.1238C14.6012 30.157 17.5051 26.9114 21.1043 26.9114C24.7035 26.9114 27.6074 30.157 27.6074 34.1238C27.6074 38.0907 24.7035 41.3363 21.1043 41.3363Z" fill="#4EC19F"/>
<path d="M21.2679 37.73C21.4315 37.5497 23.5992 35.2958 24.0082 34.4845C24.0082 34.4845 25.0716 33.042 24.0082 31.9601C24.0082 31.9601 22.454 30.5176 21.2679 32.501C20.1227 30.5176 18.5276 31.9601 18.5276 31.9601C17.4642 33.042 18.5276 34.4845 18.5276 34.4845C18.9366 35.2958 21.2679 37.73 21.2679 37.73Z" fill="#4EC19F"/>
</svg>
