<svg width="370" height="100" viewBox="0 0 370 100" fill="none" xmlns="http://www.w3.org/2000/svg">
<path d="M53.04 27.5L0.509888 -4.10992L0.509888 59.1099L53.04 27.5Z" fill="white" fill-opacity="0.2"/>
<path d="M53.04 27.5L105.57 -4.10992V59.1099L53.04 27.5Z" fill="white" fill-opacity="0.1"/>
<path d="M158.608 27.5L106.078 -4.10992V59.1099L158.608 27.5Z" fill="white" fill-opacity="0.2"/>
<path d="M158.608 27.5L211.138 -4.10992V59.1099L158.608 27.5Z" fill="white" fill-opacity="0.1"/>
<path d="M264.176 27.5L211.646 -4.10992V59.1099L264.176 27.5Z" fill="white" fill-opacity="0.2"/>
<path d="M264.176 27.5L316.706 -4.10992V59.1099L264.176 27.5Z" fill="white" fill-opacity="0.1"/>
<path d="M369.744 27.5L317.214 -4.10992V59.1099L369.744 27.5Z" fill="white" fill-opacity="0.2"/>
<path d="M0.256348 62.5L52.7865 30.8901L52.7865 94.1099L0.256348 62.5Z" fill="white" fill-opacity="0.1"/>
<path d="M105.824 62.5L53.2941 30.8901L53.2941 94.1099L105.824 62.5Z" fill="white" fill-opacity="0.2"/>
<path d="M105.824 62.5L158.354 30.8901V94.1099L105.824 62.5Z" fill="white" fill-opacity="0.1"/>
<path d="M211.392 62.5L158.862 30.8901V94.1099L211.392 62.5Z" fill="white" fill-opacity="0.2"/>
<path d="M211.392 62.5L263.922 30.8901V94.1099L211.392 62.5Z" fill="white" fill-opacity="0.1"/>
<path d="M316.96 62.5L264.43 30.8901V94.1099L316.96 62.5Z" fill="white" fill-opacity="0.2"/>
<path d="M316.96 62.5L369.49 30.8901V94.1099L316.96 62.5Z" fill="white" fill-opacity="0.1"/>
<rect x="-1" y="-1" width="371" height="101" fill="url(#paint0_linear_1635_9838)"/>
<defs>
</defs>
</svg>
