<svg width="40" height="32" viewBox="0 0 40 32" fill="none" xmlns="http://www.w3.org/2000/svg">
<path d="M39.9646 3.55967C39.8207 3.01041 39.263 2.668 38.7166 2.77981L29.0179 4.71156C28.1676 3.70223 26.982 3.04273 25.6894 2.94193C24.7754 2.87065 23.8432 3.02299 22.9613 3.37379C20.6441 4.29202 20.0305 6.46949 19.5386 8.2207C19.4179 8.64767 19.2998 9.07149 19.1574 9.47243C13.6104 5.6525 3.69502 1.74619 0.698804 2.85947C0.278124 3.016 0 3.41851 0 3.86715C0.00279518 5.83358 2.01954 7.95655 4.57298 10.6455C5.27318 11.3835 6.00133 12.1508 6.70713 12.939C7.41964 15.1279 8.587 16.5652 9.81148 17.7723C6.77002 21.6107 4.34621 27.364 5.5527 29.79C5.94403 30.5769 6.67498 31.0157 7.58063 31.0157C7.65051 31.0157 7.72319 31.0129 7.79586 31.0073C9.05231 30.9137 10.176 29.7746 11.7301 28.1967C12.6456 27.2673 13.677 26.2205 14.9321 25.1681C17.0166 24.9035 18.9308 24.0525 20.6542 22.8479C23.1006 23.7936 25.3603 24.3984 28.7921 23.6433C29.6768 23.7425 30.5517 23.8627 31.3875 23.9787C33.101 24.2149 34.5615 24.4162 35.748 24.4162C36.8032 24.4162 37.6418 24.2569 38.247 23.8208C38.6117 23.5581 38.7739 23.0968 38.6537 22.6636C37.8265 19.68 34.3013 16.5449 28.2138 13.3418C29.1322 11.3766 29.7472 9.4761 30.0282 7.88483L39.2616 4.85246C39.8011 4.67496 40.1086 4.10893 39.9646 3.55967ZM8.68893 12.0851C8.64421 11.9369 8.56734 11.8 8.46532 11.684C7.69663 10.8189 6.8972 9.97609 6.12991 9.16828C4.69317 7.65467 3.10828 5.98592 2.4542 4.79096C5.42761 4.99004 12.7477 7.70026 17.7081 11.0758C17.2152 11.4619 16.6399 11.8668 16.0264 12.2961C14.595 13.2978 12.8701 14.5368 11.2508 16.1783C10.1671 15.1027 9.2478 13.927 8.68893 12.0851ZM14.3912 23.0689C14.1801 23.0885 13.9789 23.1709 13.814 23.3065C12.3605 24.4986 11.1627 25.7132 10.2011 26.6901C9.26056 27.6447 8.08936 28.8326 7.63654 28.8662C7.60998 28.869 7.58762 28.869 7.56805 28.869C7.52053 28.8676 7.49118 28.8634 7.49677 28.8704C6.83571 28.1464 8.44016 22.535 12.0823 18.3967C13.7385 16.5169 15.6071 15.2087 17.2563 14.0557C19.1514 12.7294 20.6469 11.6826 21.1752 10.2039C21.3359 9.75667 21.4701 9.28148 21.6056 8.8021C22.113 6.9936 22.5113 5.86153 23.7538 5.36958C24.2457 5.17391 24.7572 5.07188 25.2506 5.07188C25.3414 5.07188 25.4323 5.07608 25.5231 5.08307C26.6119 5.16692 27.5818 5.99291 27.9829 7.15991C27.2394 12.3213 21.9159 22.3435 14.3912 23.0689ZM36.1799 22.2625C35.066 22.3184 33.1708 22.057 31.681 21.8516C30.7698 21.7258 29.8124 21.5944 28.8466 21.4896C28.7292 21.4756 28.6049 21.4826 28.4875 21.5106C26.0633 22.0725 24.3467 21.8388 22.592 21.2668C24.4507 19.5339 26.0209 17.4172 27.2388 15.2484C32.9003 18.2268 35.2672 20.596 36.1799 22.2625Z" fill="#DD4773"/>
<path d="M24.1437 8.15228C24.345 8.36751 24.6161 8.48211 24.9026 8.48211C25.1891 8.48211 25.4602 8.36751 25.6615 8.15228C25.7621 8.05305 25.8474 7.93844 25.8907 7.80986C25.948 7.67989 25.976 7.55131 25.976 7.40875C25.976 7.2648 25.948 7.12224 25.8907 6.99366C25.8474 6.86508 25.7621 6.7365 25.6615 6.63587C25.2604 6.24874 24.5448 6.24874 24.1437 6.63587C24.0445 6.7365 23.9732 6.86508 23.9159 6.99366C23.8586 7.12224 23.8292 7.2648 23.8292 7.40875C23.8292 7.55131 23.8586 7.67989 23.9159 7.80986C23.9578 7.93844 24.0445 8.05305 24.1437 8.15228Z" fill="#DD4773"/>
</svg>
