<svg width="30" height="28" viewBox="0 0 30 28" fill="none" xmlns="http://www.w3.org/2000/svg">
<path d="M15.1641 27.3252C15.4717 27.3252 15.9111 27.1201 16.2334 26.9297C24.4805 21.6562 29.71 15.5186 29.71 9.27832C29.71 4.09277 26.1504 0.430664 21.5508 0.430664C18.6943 0.430664 16.4971 2.0127 15.1641 4.42969C13.8604 2.02734 11.6338 0.430664 8.77734 0.430664C4.17773 0.430664 0.618164 4.09277 0.618164 9.27832C0.618164 15.5186 5.84766 21.6562 14.1094 26.9297C14.417 27.1201 14.8564 27.3252 15.1641 27.3252ZM16.3359 9.23438V14.6836L16.2334 17.1445L17.4932 15.8262L18.8262 14.4785C19.0459 14.2588 19.3389 14.127 19.6318 14.127C20.2324 14.127 20.7158 14.5664 20.7158 15.1816C20.7158 15.5332 20.5693 15.7822 20.335 16.002L16.0283 19.9424C15.6914 20.25 15.4717 20.3379 15.1641 20.3379C14.8711 20.3379 14.6367 20.25 14.3145 19.9424L10.0078 16.002C9.77344 15.7822 9.62695 15.5332 9.62695 15.1816C9.62695 14.5664 10.0811 14.127 10.7109 14.127C10.9893 14.127 11.2969 14.2588 11.5166 14.4785L12.835 15.8262L14.1094 17.1445L14.0068 14.6836V9.23438C14.0068 8.61914 14.5342 8.10645 15.1641 8.10645C15.7939 8.10645 16.3359 8.61914 16.3359 9.23438Z" fill="#DD4773"/>
</svg>
